<?xml version="1.0" encoding="UTF-8"?>
<svg xmlns="http://www.w3.org/2000/svg" xmlns:xlink="http://www.w3.org/1999/xlink" version="1.1" width="1280px" height="683px" style="shape-rendering:geometricPrecision; text-rendering:geometricPrecision; image-rendering:optimizeQuality; fill-rule:evenodd; clip-rule:evenodd">
  <g>
    <path style="opacity:0.998" fill="#1f5cb2" d="M 1256.5,445.5 C 845.833,445.5 435.167,445.5 24.5,445.5C 24.5,304.833 24.5,164.167 24.5,23.5C 435.167,23.5 845.833,23.5 1256.5,23.5C 1256.5,164.167 1256.5,304.833 1256.5,445.5 Z"></path>
  </g>
  <g>
    <path style="opacity:1" fill="#f5f8fb" d="M 441.5,131.5 C 436.266,132.802 430.933,132.802 425.5,131.5C 412.537,125.352 399.87,118.685 387.5,111.5C 389.667,108.5 391.833,105.5 394,102.5C 407,111.833 420,121.167 433,130.5C 427.782,118.731 421.949,107.065 415.5,95.5C 418,93.5002 420.834,92.1669 424,91.5C 430.621,104.416 436.454,117.749 441.5,131.5 Z"></path>
  </g>
  <g>
    <path style="opacity:1" fill="#fefffe" d="M 444.5,96.5 C 449.833,96.5 455.167,96.5 460.5,96.5C 460.5,101.833 460.5,107.167 460.5,112.5C 455.167,112.5 449.833,112.5 444.5,112.5C 444.5,107.167 444.5,101.833 444.5,96.5 Z"></path>
  </g>
  <g>
    <path style="opacity:1" fill="#9db6dc" d="M 444.5,96.5 C 449.975,95.5111 455.642,95.1778 461.5,95.5C 461.5,101.5 461.5,107.5 461.5,113.5C 455.642,113.822 449.975,113.489 444.5,112.5C 449.833,112.5 455.167,112.5 460.5,112.5C 460.5,107.167 460.5,101.833 460.5,96.5C 455.167,96.5 449.833,96.5 444.5,96.5 Z"></path>
  </g>
  <g>
    <path style="opacity:1" fill="#f7f9fc" d="M 681.5,97.5 C 686.167,97.5 690.833,97.5 695.5,97.5C 698.674,110.388 706.34,114.222 718.5,109C 722.412,106.06 724.745,102.227 725.5,97.5C 730.167,97.5 734.833,97.5 739.5,97.5C 733.963,116.772 721.296,124.605 701.5,121C 690.674,116.676 684.007,108.843 681.5,97.5 Z"></path>
  </g>
  <g>
    <path style="opacity:1" fill="#fbfcfd" d="M 1016.5,132.5 C 1011.19,133.026 1006.19,132.36 1001.5,130.5C 994.439,118.388 983.939,111.721 970,110.5C 955.565,111.785 950.399,119.452 954.5,133.5C 959.547,133.663 964.547,133.329 969.5,132.5C 996.5,133.833 1023.5,133.833 1050.5,132.5C 1090.53,133.166 1130.53,133.499 1170.5,133.5C 1170.5,137.5 1170.5,141.5 1170.5,145.5C 1165.83,145.5 1161.17,145.5 1156.5,145.5C 1156.5,169.5 1156.5,193.5 1156.5,217.5C 1152.17,217.5 1147.83,217.5 1143.5,217.5C 1143.5,193.5 1143.5,169.5 1143.5,145.5C 1135.5,145.5 1127.5,145.5 1119.5,145.5C 1119.5,169.167 1119.5,192.833 1119.5,216.5C 1115.17,216.5 1110.83,216.5 1106.5,216.5C 1106.83,210.132 1106.5,203.798 1105.5,197.5C 1104.89,197.624 1104.56,197.957 1104.5,198.5C 1087.2,207.552 1072.7,204.219 1061,188.5C 1057.13,182.346 1055.46,175.679 1056,168.5C 1072.86,171.307 1078.53,164.641 1073,148.5C 1072.17,147.667 1071.33,146.833 1070.5,146C 1060.51,145.5 1050.51,145.334 1040.5,145.5C 1040.5,152.167 1040.5,158.833 1040.5,165.5C 1029.16,165.333 1017.83,165.5 1006.5,166C 1005.57,166.388 1004.91,167.055 1004.5,168C 1007.15,172.169 1010.82,175.169 1015.5,177C 1021.12,176.308 1026.78,175.474 1032.5,174.5C 1040.09,174.245 1044.59,177.912 1046,185.5C 1047.38,202.24 1039.88,212.406 1023.5,216C 1011.52,217.673 1000.85,214.673 991.5,207C 981.551,199.549 974.718,190.049 971,178.5C 974.056,176.721 977.223,175.054 980.5,173.5C 983.304,178.433 986.137,183.433 989,188.5C 994.753,196.286 1002.25,201.453 1011.5,204C 1018.52,205.646 1024.69,204.146 1030,199.5C 1032.24,196.119 1032.91,192.452 1032,188.5C 1031.04,187.106 1029.71,186.439 1028,186.5C 1023.3,188.007 1018.46,189.007 1013.5,189.5C 1001.61,184.605 993.94,175.939 990.5,163.5C 991.148,159.346 993.482,156.512 997.5,155C 1007.16,154.5 1016.83,154.334 1026.5,154.5C 1026.5,151.5 1026.5,148.5 1026.5,145.5C 1003.17,145.5 979.833,145.5 956.5,145.5C 955.502,168.994 955.169,192.661 955.5,216.5C 951.167,216.5 946.833,216.5 942.5,216.5C 942.5,192.833 942.5,169.167 942.5,145.5C 933.833,145.5 925.167,145.5 916.5,145.5C 916.5,152.167 916.5,158.833 916.5,165.5C 906.161,165.334 895.828,165.5 885.5,166C 884.643,166.689 883.977,167.522 883.5,168.5C 885.994,171.826 888.994,174.66 892.5,177C 900.397,175.487 908.397,174.82 916.5,175C 923.54,179.255 926.04,185.422 924,193.5C 922.197,204.632 916.03,212.132 905.5,216C 910.268,220.769 915.601,224.769 921.5,228C 919.363,231.636 917.029,235.136 914.5,238.5C 905.098,233.797 896.765,227.63 889.5,220C 881.842,219.753 875.342,216.919 870,211.5C 866.56,201.61 870.06,196.776 880.5,197C 885.614,199.789 890.447,202.955 895,206.5C 904.298,205.863 909.798,201.029 911.5,192C 911.561,190.289 910.894,188.956 909.5,188C 903.116,187.601 896.783,188.101 890.5,189.5C 883.316,186.488 877.816,181.488 874,174.5C 871.216,169.825 869.883,164.825 870,159.5C 871.5,158 873,156.5 874.5,155C 884.161,154.5 893.828,154.334 903.5,154.5C 903.5,151.5 903.5,148.5 903.5,145.5C 889.5,145.5 875.5,145.5 861.5,145.5C 861.5,141.5 861.5,137.5 861.5,133.5C 887.962,133.723 914.296,133.39 940.5,132.5C 937.29,117.088 942.957,106.255 957.5,100C 985.496,95.6653 1005.16,106.499 1016.5,132.5 Z"></path>
  </g>
  <g>
    <path style="opacity:1" fill="#fefffe" d="M 903.5,101.5 C 908.833,101.5 914.167,101.5 919.5,101.5C 919.5,106.833 919.5,112.167 919.5,117.5C 919.5,112.167 919.5,106.833 919.5,101.5C 914.167,101.5 908.833,101.5 903.5,101.5 Z"></path>
  </g>
  <g>
    <path style="opacity:1" fill="#93add3" d="M 903.5,101.5 C 908.975,100.511 914.642,100.178 920.5,100.5C 920.822,106.358 920.489,112.025 919.5,117.5C 919.5,112.167 919.5,106.833 919.5,101.5C 914.167,101.5 908.833,101.5 903.5,101.5 Z"></path>
  </g>
  <g>
    <path style="opacity:1" fill="#225db3" d="M 1001.5,130.5 C 991.219,132.476 980.552,133.143 969.5,132.5C 964.547,133.329 959.547,133.663 954.5,133.5C 950.399,119.452 955.565,111.785 970,110.5C 983.939,111.721 994.439,118.388 1001.5,130.5 Z"></path>
  </g>
  <g>
    <path style="opacity:1" fill="#90acd6" d="M 425.5,131.5 C 430.933,132.802 436.266,132.802 441.5,131.5C 447.409,132.455 453.409,132.789 459.5,132.5C 435.006,133.498 410.339,133.831 385.5,133.5C 398.833,132.833 412.167,132.167 425.5,131.5 Z"></path>
  </g>
  <g>
    <path style="opacity:1" fill="#fcfcfd" d="M 785.5,145.5 C 784.186,150.348 784.186,155.348 785.5,160.5C 786.107,160.376 786.44,160.043 786.5,159.5C 801.768,149.683 813.602,153.016 822,169.5C 823.439,174.762 823.772,180.096 823,185.5C 821.53,190.243 819.864,194.909 818,199.5C 816.444,203.876 813.944,207.542 810.5,210.5C 806.403,208.56 802.737,206.06 799.5,203C 805.594,196.143 809.261,188.143 810.5,179C 809.349,172.516 805.516,168.682 799,167.5C 793.125,169.107 788.459,172.441 785,177.5C 784.5,190.829 784.333,204.163 784.5,217.5C 780.167,217.5 775.833,217.5 771.5,217.5C 771.666,208.161 771.5,198.827 771,189.5C 756.147,198.328 744.814,194.995 737,179.5C 736.5,168.172 736.333,156.838 736.5,145.5C 730.167,145.5 723.833,145.5 717.5,145.5C 716.502,168.994 716.169,192.661 716.5,216.5C 712.167,216.5 707.833,216.5 703.5,216.5C 703.5,192.833 703.5,169.167 703.5,145.5C 695.5,145.5 687.5,145.5 679.5,145.5C 679.5,169.5 679.5,193.5 679.5,217.5C 675.167,217.5 670.833,217.5 666.5,217.5C 666.832,205.482 666.499,193.482 665.5,181.5C 660.715,184.372 656.215,184.038 652,180.5C 655.786,198.568 648.452,208.901 630,211.5C 617.365,209.208 607.698,202.541 601,191.5C 598.833,187.167 596.667,182.833 594.5,178.5C 597.242,176.185 600.409,174.518 604,173.5C 607.9,182.082 613.4,189.582 620.5,196C 628.834,201.701 635.334,200.201 640,191.5C 641.139,180.63 636.139,174.963 625,174.5C 623.564,174.559 622.231,174.892 621,175.5C 619.762,172.741 618.596,169.907 617.5,167C 617.645,166.228 617.978,165.561 618.5,165C 623.823,163.923 628.323,161.423 632,157.5C 634.768,144.619 629.934,140.785 617.5,146C 613.895,148.383 610.395,150.883 607,153.5C 603.951,151.59 601.451,149.09 599.5,146C 611.429,131.668 625.429,129.002 641.5,138C 647.059,143.403 648.892,149.903 647,157.5C 645.492,160.925 644.159,164.258 643,167.5C 650.312,173.125 657.979,173.791 666,169.5C 666.5,161.507 666.666,153.507 666.5,145.5C 662.167,145.5 657.833,145.5 653.5,145.5C 653.5,141.5 653.5,137.5 653.5,133.5C 712.361,132.984 771.361,132.984 830.5,133.5C 830.5,137.5 830.5,141.5 830.5,145.5C 815.5,145.5 800.5,145.5 785.5,145.5 Z"></path>
  </g>
  <g>
    <path style="opacity:1" fill="#6f96ce" d="M 1001.5,130.5 C 1006.19,132.36 1011.19,133.026 1016.5,132.5C 1027.83,132.5 1039.17,132.5 1050.5,132.5C 1023.5,133.833 996.5,133.833 969.5,132.5C 980.552,133.143 991.219,132.476 1001.5,130.5 Z"></path>
  </g>
  <g>
    <path style="opacity:1" fill="#fbfcfd" d="M 459.5,132.5 C 492.79,133.486 526.123,133.819 559.5,133.5C 559.5,137.5 559.5,141.5 559.5,145.5C 545.167,145.5 530.833,145.5 516.5,145.5C 516.334,150.179 516.501,154.845 517,159.5C 524.142,154.278 531.975,153.112 540.5,156C 548.25,159.499 552.25,165.499 552.5,174C 551.9,187.698 546.4,198.865 536,207.5C 532.547,205.05 529.38,202.217 526.5,199C 534.628,191.583 538.461,182.417 538,171.5C 530.834,164.474 524.167,165.141 518,173.5C 516.534,187.736 516.034,202.069 516.5,216.5C 512.167,216.5 507.833,216.5 503.5,216.5C 503.83,209.468 503.497,202.468 502.5,195.5C 501.893,195.624 501.56,195.957 501.5,196.5C 484.039,204.846 472.206,199.846 466,181.5C 464.25,167.167 470.083,157.334 483.5,152C 493.741,149.075 498.407,152.909 497.5,163.5C 484.37,162.463 478.537,168.463 480,181.5C 483.115,187.977 487.949,189.811 494.5,187C 497.562,185.939 500.062,184.106 502,181.5C 502.5,169.505 502.667,157.505 502.5,145.5C 484.5,145.5 466.5,145.5 448.5,145.5C 448.5,169.5 448.5,193.5 448.5,217.5C 443.833,217.5 439.167,217.5 434.5,217.5C 434.666,210.825 434.5,204.158 434,197.5C 425.887,201.095 417.387,202.261 408.5,201C 393.758,193.796 388.925,182.296 394,166.5C 400.694,154.592 410.861,149.758 424.5,152C 425.849,152.772 426.682,153.939 427,155.5C 427.673,158.521 428.007,161.521 428,164.5C 423.438,161.944 418.938,161.944 414.5,164.5C 420.679,170.511 427.179,176.177 434,181.5C 434.5,169.505 434.667,157.505 434.5,145.5C 418.167,145.5 401.833,145.5 385.5,145.5C 385.5,141.5 385.5,137.5 385.5,133.5C 410.339,133.831 435.006,133.498 459.5,132.5 Z"></path>
  </g>
  <g>
    <path style="opacity:1" fill="#c1d1e9" d="M 717.5,145.5 C 717.5,169.5 717.5,193.5 717.5,217.5C 712.637,217.819 707.97,217.486 703.5,216.5C 707.833,216.5 712.167,216.5 716.5,216.5C 716.169,192.661 716.502,168.994 717.5,145.5 Z"></path>
  </g>
  <g>
    <path style="opacity:1" fill="#255fb4" d="M 749.5,145.5 C 756.833,145.5 764.167,145.5 771.5,145.5C 771.666,154.506 771.5,163.506 771,172.5C 767.342,180.419 761.509,182.919 753.5,180C 751.962,178.068 750.795,175.901 750,173.5C 749.5,164.173 749.334,154.839 749.5,145.5 Z"></path>
  </g>
  <g>
    <path style="opacity:1" fill="#7097cf" d="M 785.5,145.5 C 785.181,150.363 785.514,155.03 786.5,159.5C 786.44,160.043 786.107,160.376 785.5,160.5C 784.186,155.348 784.186,150.348 785.5,145.5 Z"></path>
  </g>
  <g>
    <path style="opacity:1" fill="#99b2d6" d="M 956.5,145.5 C 956.5,169.5 956.5,193.5 956.5,217.5C 951.637,217.819 946.97,217.486 942.5,216.5C 946.833,216.5 951.167,216.5 955.5,216.5C 955.169,192.661 955.502,168.994 956.5,145.5 Z"></path>
  </g>
  <g>
    <path style="opacity:1" fill="#225db3" d="M 1084.5,146.5 C 1091.31,145.509 1098.31,145.175 1105.5,145.5C 1105.67,157.505 1105.5,169.505 1105,181.5C 1096.55,191.851 1086.72,193.685 1075.5,187C 1073.42,185.499 1072.08,183.499 1071.5,181C 1074.47,178.509 1077.81,176.509 1081.5,175C 1090.56,166.116 1091.56,156.616 1084.5,146.5 Z"></path>
  </g>
  <g>
    <path style="opacity:1" fill="#2760b5" d="M 407.5,168.5 C 415.429,174.092 422.762,180.426 429.5,187.5C 423.355,191.296 417.022,191.462 410.5,188C 405.05,182.259 404.05,175.759 407.5,168.5 Z"></path>
  </g>
  <g>
    <path style="opacity:1" fill="#9eb5d9" d="M 501.5,196.5 C 501.56,195.957 501.893,195.624 502.5,195.5C 503.497,202.468 503.83,209.468 503.5,216.5C 507.833,216.5 512.167,216.5 516.5,216.5C 512.03,217.486 507.363,217.819 502.5,217.5C 502.825,210.313 502.491,203.313 501.5,196.5 Z"></path>
  </g>
  <g>
    <path style="opacity:1" fill="#becfe8" d="M 1104.5,198.5 C 1104.56,197.957 1104.89,197.624 1105.5,197.5C 1106.5,203.798 1106.83,210.132 1106.5,216.5C 1110.83,216.5 1115.17,216.5 1119.5,216.5C 1115.03,217.486 1110.36,217.819 1105.5,217.5C 1105.82,210.978 1105.49,204.645 1104.5,198.5 Z"></path>
  </g>
  <g>
    <path style="opacity:1" fill="#f4f6fb" d="M 748.5,208.5 C 752.344,209.669 755.344,212.002 757.5,215.5C 755.183,218.317 752.683,220.984 750,223.5C 747.029,220.94 744.196,218.273 741.5,215.5C 744.188,213.479 746.521,211.146 748.5,208.5 Z"></path>
  </g>
  <g>
    <path style="opacity:1" fill="#fcfdfe" d="M 384.5,290.5 C 403.541,290.079 422.541,290.579 441.5,292C 452.386,296.572 456.886,304.739 455,316.5C 453.67,323.331 449.837,328.164 443.5,331C 458.116,337.261 462.949,348.095 458,363.5C 453.01,372.25 445.51,377.416 435.5,379C 418.503,379.5 401.503,379.667 384.5,379.5C 384.5,349.833 384.5,320.167 384.5,290.5 Z"></path>
  </g>
  <g>
    <path style="opacity:1" fill="#b9cbe6" d="M 640.5,290.5 C 634.833,290.5 629.167,290.5 623.5,290.5C 623.5,320.167 623.5,349.833 623.5,379.5C 622.502,349.671 622.169,319.671 622.5,289.5C 628.69,289.177 634.69,289.51 640.5,290.5 Z"></path>
  </g>
  <g>
    <path style="opacity:1" fill="#fcfdfe" d="M 640.5,290.5 C 640.333,306.17 640.5,321.837 641,337.5C 648.531,330.303 655.698,322.803 662.5,315C 669.524,314.169 676.524,314.336 683.5,315.5C 675.348,323.152 667.348,330.985 659.5,339C 668.748,352.161 677.748,365.494 686.5,379C 679.144,379.831 671.811,379.665 664.5,378.5C 659.083,369.331 653.417,360.331 647.5,351.5C 645.063,352.803 642.896,354.47 641,356.5C 640.5,364.159 640.334,371.826 640.5,379.5C 634.833,379.5 629.167,379.5 623.5,379.5C 623.5,349.833 623.5,320.167 623.5,290.5C 629.167,290.5 634.833,290.5 640.5,290.5 Z"></path>
  </g>
  <g>
    <path style="opacity:1" fill="#fdfdfe" d="M 842.5,326.5 C 838.167,326.5 833.833,326.5 829.5,326.5C 829.5,344.167 829.5,361.833 829.5,379.5C 823.833,379.5 818.167,379.5 812.5,379.5C 812.5,361.833 812.5,344.167 812.5,326.5C 808.833,326.5 805.167,326.5 801.5,326.5C 801.5,322.5 801.5,318.5 801.5,314.5C 805.167,314.5 808.833,314.5 812.5,314.5C 810.488,303.015 814.821,295.182 825.5,291C 831.491,290.501 837.491,290.334 843.5,290.5C 843.5,294.833 843.5,299.167 843.5,303.5C 833.844,301.166 829.511,304.833 830.5,314.5C 834.5,314.5 838.5,314.5 842.5,314.5C 842.5,318.5 842.5,322.5 842.5,326.5 Z"></path>
  </g>
  <g>
    <path style="opacity:1" fill="#fefffe" d="M 889.5,290.5 C 895.833,290.5 902.167,290.5 908.5,290.5C 908.5,320.167 908.5,349.833 908.5,379.5C 902.167,379.5 895.833,379.5 889.5,379.5C 889.5,349.833 889.5,320.167 889.5,290.5 Z"></path>
  </g>
  <g>
    <path style="opacity:1" fill="#b5c8e5" d="M 889.5,290.5 C 895.979,289.509 902.646,289.176 909.5,289.5C 909.831,319.671 909.498,349.671 908.5,379.5C 908.5,349.833 908.5,320.167 908.5,290.5C 902.167,290.5 895.833,290.5 889.5,290.5 Z"></path>
  </g>
  <g>
    <path style="opacity:1" fill="#95afd4" d="M 1047.5,290.5 C 1047.83,301.187 1047.5,311.854 1046.5,322.5C 1045.89,322.376 1045.56,322.043 1045.5,321.5C 1046.17,311.167 1046.83,300.833 1047.5,290.5 Z"></path>
  </g>
  <g>
    <path style="opacity:1" fill="#fcfdfe" d="M 1047.5,290.5 C 1053.17,290.5 1058.83,290.5 1064.5,290.5C 1064.5,320.167 1064.5,349.833 1064.5,379.5C 1058.83,379.5 1053.17,379.5 1047.5,379.5C 1047.66,377.143 1047.5,374.81 1047,372.5C 1035.29,383.516 1022.79,384.35 1009.5,375C 996.716,359.203 995.216,342.369 1005,324.5C 1015.11,312.773 1027.27,310.273 1041.5,317C 1043.04,318.371 1044.37,319.871 1045.5,321.5C 1045.56,322.043 1045.89,322.376 1046.5,322.5C 1047.5,311.854 1047.83,301.187 1047.5,290.5 Z"></path>
  </g>
  <g>
    <path style="opacity:1" fill="#fefffe" d="M 1080.5,290.5 C 1086.17,290.5 1091.83,290.5 1097.5,290.5C 1097.5,295.167 1097.5,299.833 1097.5,304.5C 1091.83,304.5 1086.17,304.5 1080.5,304.5C 1080.5,299.833 1080.5,295.167 1080.5,290.5 Z"></path>
  </g>
  <g>
    <path style="opacity:1" fill="#30282d" d="M 214.5,68.5 C 216.117,69.5893 216.95,71.256 217,73.5C 224.176,128.231 231.676,182.898 239.5,237.5C 273.507,235.434 307.507,232.434 341.5,228.5C 342.833,228.833 344.167,229.167 345.5,229.5C 315.034,247.904 284.367,266.07 253.5,284C 267.962,316.426 282.296,348.926 296.5,381.5C 296,381.833 295.5,382.167 295,382.5C 269.758,360.122 244.591,337.622 219.5,315C 217.99,314.15 216.49,313.317 215,312.5C 189.091,335.545 163.258,358.712 137.5,382C 136.365,382.749 135.365,382.583 134.5,381.5C 148.704,348.926 163.038,316.426 177.5,284C 146.5,265.833 115.5,247.667 84.5,229.5C 85.8333,229.167 87.1667,228.833 88.5,228.5C 123.148,232.098 157.814,235.431 192.5,238.5C 199.507,181.774 206.841,125.107 214.5,68.5 Z"></path>
  </g>
  <g>
    <path style="opacity:1" fill="#ec3220" d="M 288.5,374.5 C 264.797,352.795 240.797,331.462 216.5,310.5C 216.842,309.662 217.508,309.328 218.5,309.5C 225.824,308.371 233.158,307.204 240.5,306C 241.794,303.913 242.961,301.746 244,299.5C 244.085,302.361 243.251,305.028 241.5,307.5C 257.306,329.806 273.306,351.973 289.5,374C 289.272,374.399 288.938,374.565 288.5,374.5 Z"></path>
  </g>
  <g>
    <path style="opacity:1" fill="#ee6d19" d="M 251.5,284.5 C 264.571,314.213 277.737,343.88 291,373.5C 291.309,376.967 290.476,377.3 288.5,374.5C 288.938,374.565 289.272,374.399 289.5,374C 273.306,351.973 257.306,329.806 241.5,307.5C 243.251,305.028 244.085,302.361 244,299.5C 242.961,301.746 241.794,303.913 240.5,306C 233.158,307.204 225.824,308.371 218.5,309.5C 229.192,300.814 240.192,292.481 251.5,284.5 Z"></path>
  </g>
  <g>
    <path style="opacity:1" fill="#f17018" d="M 181.5,286.5 C 192.139,293.813 202.472,301.479 212.5,309.5C 204.765,308.575 197.098,307.241 189.5,305.5C 186.545,299.26 183.878,292.927 181.5,286.5 Z"></path>
  </g>
  <g>
    <path style="opacity:1" fill="#ec3220" d="M 179.5,284.5 C 180.5,284.833 181.167,285.5 181.5,286.5C 183.878,292.927 186.545,299.26 189.5,305.5C 197.098,307.241 204.765,308.575 212.5,309.5C 212.833,309.5 213.167,309.5 213.5,309.5C 213.5,309.833 213.5,310.167 213.5,310.5C 205.176,309.25 196.843,308.417 188.5,308C 172.934,329.656 157.268,351.156 141.5,372.5C 153.607,342.821 166.273,313.487 179.5,284.5 Z"></path>
  </g>
  <g>
    <path style="opacity:1" fill="#2a488c" d="M 194.5,239.5 C 208.833,239.5 223.167,239.5 237.5,239.5C 238.167,239.833 238.833,240.167 239.5,240.5C 243.463,254.053 247.796,267.387 252.5,280.5C 252.5,280.833 252.5,281.167 252.5,281.5C 252.443,282.609 252.11,283.609 251.5,284.5C 240.192,292.481 229.192,300.814 218.5,309.5C 217.508,309.328 216.842,309.662 216.5,310.5C 215.391,310.443 214.391,310.11 213.5,309.5C 213.167,309.5 212.833,309.5 212.5,309.5C 202.472,301.479 192.139,293.813 181.5,286.5C 181.167,285.5 180.5,284.833 179.5,284.5C 178.89,283.609 178.557,282.609 178.5,281.5C 182.697,268.91 186.697,256.243 190.5,243.5C 191.167,243.5 191.5,243.167 191.5,242.5C 192.1,241.1 193.1,240.1 194.5,239.5 Z"></path>
  </g>
  <g>
    <path style="opacity:1" fill="#f6f8fb" d="M 208.5,243.5 C 229.07,241.739 240.737,251.073 243.5,271.5C 238.647,295.425 224.647,303.591 201.5,296C 187.003,285.833 183.503,272.666 191,256.5C 195.603,250.381 201.437,246.048 208.5,243.5 Z"></path>
  </g>
  <g>
    <path style="opacity:1" fill="#9499b0" d="M 208.5,286.5 C 209.833,284.833 209.833,283.167 208.5,281.5C 213.671,280.346 215.338,282.346 213.5,287.5C 212.757,286.092 211.923,284.759 211,283.5C 210.764,285.119 209.931,286.119 208.5,286.5 Z"></path>
  </g>
  <g>
    <path style="opacity:1" fill="#322f3a" d="M 219.5,268.5 C 221.459,269.871 223.625,270.871 226,271.5C 226.499,276.489 226.666,281.489 226.5,286.5C 227.5,286.5 228.5,286.5 229.5,286.5C 229.5,287.833 229.5,289.167 229.5,290.5C 227.94,290.481 226.44,290.148 225,289.5C 223.403,290.885 221.57,291.551 219.5,291.5C 218.996,295.335 217.996,295.335 216.5,291.5C 215.808,292.025 215.308,292.692 215,293.5C 213.573,291.213 211.739,290.88 209.5,292.5C 206.798,291.478 204.131,290.478 201.5,289.5C 201.5,288.167 201.5,286.833 201.5,285.5C 203.277,285.786 204.944,286.453 206.5,287.5C 207.416,287.457 208.083,287.124 208.5,286.5C 209.931,286.119 210.764,285.119 211,283.5C 211.923,284.759 212.757,286.092 213.5,287.5C 215.338,282.346 213.671,280.346 208.5,281.5C 208.343,280.127 208.51,278.793 209,277.5C 210.813,278.609 211.646,277.942 211.5,275.5C 210.209,275.737 209.209,275.404 208.5,274.5C 210.101,271.416 210.768,268.083 210.5,264.5C 211.283,262.657 211.95,260.657 212.5,258.5C 213.025,257.808 213.692,257.308 214.5,257C 212.717,255.933 212.217,254.433 213,252.5C 214.444,254.155 216.278,254.822 218.5,254.5C 219.127,259.141 219.46,263.807 219.5,268.5 Z"></path>
  </g>
  <g>
    <path style="opacity:1" fill="#adbfdb" d="M 216.5,284.5 C 224.35,286.073 224.35,287.073 216.5,287.5C 216.5,286.5 216.5,285.5 216.5,284.5 Z"></path>
  </g>
  <g>
    <path style="opacity:1" fill="#c2d0e7" d="M 222.5,273.5 C 223.782,274.708 223.782,276.042 222.5,277.5C 220.206,276.375 220.206,275.041 222.5,273.5 Z"></path>
  </g>
  <g>
    <path style="opacity:1" fill="#b7c3d9" d="M 219.5,268.5 C 219.808,270.924 219.474,273.257 218.5,275.5C 217.522,275.023 216.689,274.357 216,273.5C 215.74,275.618 214.74,277.284 213,278.5C 212.731,273.955 212.731,269.289 213,264.5C 213.915,265.328 214.581,266.328 215,267.5C 216.816,266.257 218.316,266.59 219.5,268.5 Z"></path>
  </g>
  <g>
    <path style="opacity:1" fill="#8c8fa5" d="M 210.5,264.5 C 210.768,268.083 210.101,271.416 208.5,274.5C 206.279,272.67 206.112,270.67 208,268.5C 208.333,269.5 208.667,270.5 209,271.5C 209.186,268.964 209.686,266.631 210.5,264.5 Z"></path>
  </g>
  <g>
    <path style="opacity:1" fill="#c1d0e7" d="M 214.5,259.5 C 216.196,259.685 217.529,260.519 218.5,262C 217.551,262.617 216.718,262.451 216,261.5C 214.915,263.657 213.749,263.824 212.5,262C 213.381,261.292 214.047,260.458 214.5,259.5 Z"></path>
  </g>
  <g>
    <path style="opacity:1" fill="#454459" d="M 204.5,257.5 C 205.596,259.103 206.93,260.603 208.5,262C 207.667,262.833 206.833,263.667 206,264.5C 205.023,262.26 204.523,259.927 204.5,257.5 Z"></path>
  </g>
  <g>
    <path style="opacity:1" fill="#282834" d="M 214.5,247.5 C 216.609,248.052 217.442,249.386 217,251.5C 216.333,250.167 215.667,250.167 215,251.5C 214.51,250.207 214.343,248.873 214.5,247.5 Z"></path>
  </g>
  <g>
    <path style="opacity:1" fill="#c8502b" d="M 236.5,235.5 C 237.434,236.568 237.768,237.901 237.5,239.5C 223.167,239.5 208.833,239.5 194.5,239.5C 194.5,239.167 194.5,238.833 194.5,238.5C 207.35,238.436 220.35,238.436 233.5,238.5C 234.5,238.5 235.5,238.5 236.5,238.5C 236.5,237.5 236.5,236.5 236.5,235.5 Z"></path>
  </g>
  <g>
    <path style="opacity:1" fill="#ed6d19" d="M 96.5,231.5 C 121.235,240.629 146.902,248.962 173.5,256.5C 173.674,259.874 174.174,263.207 175,266.5C 175.32,263.46 175.32,260.46 175,257.5C 179.739,252.256 184.905,247.59 190.5,243.5C 186.697,256.243 182.697,268.91 178.5,281.5C 149.058,264.943 119.725,248.11 90.5,231C 92.7116,230.211 94.7116,230.378 96.5,231.5 Z"></path>
  </g>
  <g>
    <path style="opacity:1" fill="#e93521" d="M 334.5,231.5 C 336.288,230.378 338.288,230.211 340.5,231C 311.275,248.11 281.942,264.943 252.5,281.5C 252.5,281.167 252.5,280.833 252.5,280.5C 253.402,273.087 254.736,265.753 256.5,258.5C 254.684,256.183 252.684,254.016 250.5,252C 253.204,253.152 255.871,254.652 258.5,256.5C 284.696,248.667 310.03,240.334 334.5,231.5 Z"></path>
  </g>
  <g>
    <path style="opacity:1" fill="#f27017" d="M 334.5,231.5 C 310.03,240.334 284.696,248.667 258.5,256.5C 255.871,254.652 253.204,253.152 250.5,252C 252.684,254.016 254.684,256.183 256.5,258.5C 254.736,265.753 253.402,273.087 252.5,280.5C 247.796,267.387 243.463,254.053 239.5,240.5C 271.199,237.83 302.865,234.83 334.5,231.5 Z"></path>
  </g>
  <g>
    <path style="opacity:1" fill="#eb3220" d="M 96.5,231.5 C 125.519,234.069 154.519,236.902 183.5,240C 186.675,239.947 189.342,240.78 191.5,242.5C 191.5,243.167 191.167,243.5 190.5,243.5C 184.905,247.59 179.739,252.256 175,257.5C 175.32,260.46 175.32,263.46 175,266.5C 174.174,263.207 173.674,259.874 173.5,256.5C 146.902,248.962 121.235,240.629 96.5,231.5 Z"></path>
  </g>
  <g>
    <path style="opacity:1" fill="#f27017" d="M 213.5,89.5 C 214.499,134.997 214.832,180.664 214.5,226.5C 213.571,227.315 212.571,228.148 211.5,229C 213.443,228.695 215.443,228.695 217.5,229C 223.062,231.941 228.395,235.108 233.5,238.5C 220.35,238.436 207.35,238.436 194.5,238.5C 200.552,188.802 206.885,139.135 213.5,89.5 Z"></path>
  </g>
  <g>
    <path style="opacity:1" fill="#ec3220" d="M 216.5,84.5 C 223.711,134.767 230.378,185.101 236.5,235.5C 236.5,236.5 236.5,237.5 236.5,238.5C 235.5,238.5 234.5,238.5 233.5,238.5C 228.395,235.108 223.062,231.941 217.5,229C 215.443,228.695 213.443,228.695 211.5,229C 212.571,228.148 213.571,227.315 214.5,226.5C 215.167,179.167 215.833,131.833 216.5,84.5 Z"></path>
  </g>
  <g>
    <path style="opacity:1" fill="#c34f2c" d="M 216.5,84.5 C 215.833,131.833 215.167,179.167 214.5,226.5C 214.832,180.664 214.499,134.997 213.5,89.5C 213.765,85.1467 214.265,80.8134 215,76.5C 216.252,79.0135 216.752,81.6802 216.5,84.5 Z"></path>
  </g>
  <g>
    <path style="opacity:1" fill="#5d85c5" d="M 1080.5,290.5 C 1080.5,295.167 1080.5,299.833 1080.5,304.5C 1086.17,304.5 1091.83,304.5 1097.5,304.5C 1091.69,305.49 1085.69,305.823 1079.5,305.5C 1079.18,300.305 1079.51,295.305 1080.5,290.5 Z"></path>
  </g>
  <g>
    <path style="opacity:1" fill="#225db3" d="M 404.5,305.5 C 412.174,305.334 419.841,305.5 427.5,306C 436.239,308.087 438.739,313.254 435,321.5C 433.442,323.359 431.609,324.859 429.5,326C 421.173,326.5 412.84,326.666 404.5,326.5C 404.5,319.5 404.5,312.5 404.5,305.5 Z"></path>
  </g>
  <g>
    <path style="opacity:1" fill="#ed6d19" d="M 213.5,310.5 C 188.537,332.96 163.704,355.627 139,378.5C 138.458,375.918 139.292,373.918 141.5,372.5C 157.268,351.156 172.934,329.656 188.5,308C 196.843,308.417 205.176,309.25 213.5,310.5 Z"></path>
  </g>
  <g>
    <path style="opacity:1" fill="#fbfcfd" d="M 490.5,313.5 C 499.552,313.193 508.552,313.693 517.5,315C 523.488,316.902 527.655,320.735 530,326.5C 530.333,342.5 530.667,358.5 531,374.5C 531.402,375.872 531.902,377.205 532.5,378.5C 526.528,379.664 520.528,379.83 514.5,379C 513.751,377.266 513.251,375.433 513,373.5C 505.068,380.251 495.902,382.751 485.5,381C 473.142,377.461 467.975,369.294 470,356.5C 472.788,348.714 478.288,344.214 486.5,343C 493.167,342 499.833,341 506.5,340C 512.057,338.496 513.89,334.996 512,329.5C 510.786,327.951 509.286,326.785 507.5,326C 503.167,325.333 498.833,325.333 494.5,326C 491.404,328.029 489.738,330.862 489.5,334.5C 483.5,334.5 477.5,334.5 471.5,334.5C 471.377,327.912 474.044,322.746 479.5,319C 483.046,316.717 486.713,314.884 490.5,313.5 Z"></path>
  </g>
  <g>
    <path style="opacity:1" fill="#fbfcfd" d="M 575.5,313.5 C 581.176,313.334 586.843,313.501 592.5,314C 598.667,316.167 602.833,320.333 605,326.5C 606.43,344.119 606.93,361.786 606.5,379.5C 600.5,379.5 594.5,379.5 588.5,379.5C 588.667,365.163 588.5,350.829 588,336.5C 587.276,329.616 583.443,326.616 576.5,327.5C 570.277,327.546 566.11,330.546 564,336.5C 563.5,350.829 563.333,365.163 563.5,379.5C 557.5,379.5 551.5,379.5 545.5,379.5C 545.5,357.833 545.5,336.167 545.5,314.5C 551.167,314.5 556.833,314.5 562.5,314.5C 562.335,317.518 562.502,320.518 563,323.5C 566.191,318.837 570.358,315.503 575.5,313.5 Z"></path>
  </g>
  <g>
    <path style="opacity:1" fill="#fbfcfd" d="M 752.5,313.5 C 782.241,310.728 796.408,324.061 795,353.5C 792.781,368.389 784.281,377.555 769.5,381C 740.217,382.716 726.717,368.883 729,339.5C 732.211,326.464 740.044,317.797 752.5,313.5 Z"></path>
  </g>
  <g>
    <path style="opacity:1" fill="#fcfcfd" d="M 944.5,338.5 C 943.504,351.99 943.171,365.656 943.5,379.5C 937.833,379.5 932.167,379.5 926.5,379.5C 926.5,358.167 926.5,336.833 926.5,315.5C 931.833,315.5 937.167,315.5 942.5,315.5C 942.336,318.187 942.503,320.854 943,323.5C 951.408,313.502 961.908,310.668 974.5,315C 980.94,317.773 984.774,322.606 986,329.5C 986.5,346.163 986.667,362.83 986.5,379.5C 980.5,379.5 974.5,379.5 968.5,379.5C 968.667,364.83 968.5,350.163 968,335.5C 967.562,331.433 965.395,328.933 961.5,328C 951.906,325.453 946.239,328.953 944.5,338.5 Z"></path>
  </g>
  <g>
    <path style="opacity:1" fill="#fafbfd" d="M 1131.5,313.5 C 1140.56,313.154 1149.56,313.654 1158.5,315C 1164.69,317.193 1168.86,321.359 1171,327.5C 1171.22,344.858 1171.72,362.191 1172.5,379.5C 1166.5,379.5 1160.5,379.5 1154.5,379.5C 1154.66,377.473 1154.5,375.473 1154,373.5C 1143.6,381.854 1132.1,383.688 1119.5,379C 1110.51,372.175 1108.01,363.342 1112,352.5C 1116.02,347.408 1121.19,344.241 1127.5,343C 1135.27,342.204 1142.94,340.87 1150.5,339C 1153.86,335.974 1154.36,332.474 1152,328.5C 1150.83,327.107 1149.33,326.273 1147.5,326C 1141.88,324.724 1136.71,325.557 1132,328.5C 1130.87,330.345 1130.37,332.345 1130.5,334.5C 1124.5,334.5 1118.5,334.5 1112.5,334.5C 1112.46,327.41 1115.46,321.91 1121.5,318C 1124.82,316.17 1128.15,314.67 1131.5,313.5 Z"></path>
  </g>
  <g>
    <path style="opacity:1" fill="#9bb3d7" d="M 942.5,315.5 C 937.167,315.5 931.833,315.5 926.5,315.5C 926.5,336.833 926.5,358.167 926.5,379.5C 926.167,379.5 925.833,379.5 925.5,379.5C 925.5,357.833 925.5,336.167 925.5,314.5C 931.358,314.178 937.025,314.511 942.5,315.5 Z"></path>
  </g>
  <g>
    <path style="opacity:1" fill="#9bb3d7" d="M 1097.5,315.5 C 1091.83,315.5 1086.17,315.5 1080.5,315.5C 1080.5,336.833 1080.5,358.167 1080.5,379.5C 1079.5,358.006 1079.17,336.34 1079.5,314.5C 1085.69,314.177 1091.69,314.51 1097.5,315.5 Z"></path>
  </g>
  <g>
    <path style="opacity:1" fill="#fefffe" d="M 1097.5,315.5 C 1097.5,336.833 1097.5,358.167 1097.5,379.5C 1091.83,379.5 1086.17,379.5 1080.5,379.5C 1080.5,358.167 1080.5,336.833 1080.5,315.5C 1086.17,315.5 1091.83,315.5 1097.5,315.5 Z"></path>
  </g>
  <g>
    <path style="opacity:1" fill="#b5c8e5" d="M 842.5,326.5 C 838.702,327.483 834.702,327.817 830.5,327.5C 830.83,345.008 830.497,362.341 829.5,379.5C 829.5,361.833 829.5,344.167 829.5,326.5C 833.833,326.5 838.167,326.5 842.5,326.5 Z"></path>
  </g>
  <g>
    <path style="opacity:1" fill="#225db3" d="M 758.5,326.5 C 767.813,325.577 773.979,329.577 777,338.5C 778.375,346.857 777.375,354.857 774,362.5C 772.363,364.81 770.196,366.31 767.5,367C 757.016,369.511 750.183,365.678 747,355.5C 745.989,348 746.655,340.667 749,333.5C 751.558,330.076 754.725,327.743 758.5,326.5 Z"></path>
  </g>
  <g>
    <path style="opacity:1" fill="#235eb4" d="M 1027.5,326.5 C 1036.2,325.264 1042.36,328.597 1046,336.5C 1048.73,346.002 1047.73,355.002 1043,363.5C 1030.68,371.242 1022.02,368.242 1017,354.5C 1015.67,346.8 1016.67,339.467 1020,332.5C 1022.11,329.879 1024.61,327.879 1027.5,326.5 Z"></path>
  </g>
  <g>
    <path style="opacity:1" fill="#245eb4" d="M 404.5,339.5 C 413.915,339.083 423.248,339.583 432.5,341C 437.209,342.917 439.542,346.417 439.5,351.5C 439.92,359.247 436.253,363.414 428.5,364C 420.507,364.5 412.507,364.666 404.5,364.5C 404.5,356.167 404.5,347.833 404.5,339.5 Z"></path>
  </g>
  <g>
    <path style="opacity:1" fill="#4678c0" d="M 944.5,338.5 C 944.5,352.5 944.5,366.5 944.5,380.5C 937.978,380.823 931.645,380.49 925.5,379.5C 925.833,379.5 926.167,379.5 926.5,379.5C 932.167,379.5 937.833,379.5 943.5,379.5C 943.171,365.656 943.504,351.99 944.5,338.5 Z"></path>
  </g>
  <g>
    <path style="opacity:1" fill="#245eb4" d="M 510.5,348.5 C 515.131,363.394 509.464,370.228 493.5,369C 489.334,368.015 487.334,365.348 487.5,361C 487.919,355.591 490.919,352.591 496.5,352C 500.773,350.97 505.106,350.303 509.5,350C 510.056,349.617 510.389,349.117 510.5,348.5 Z"></path>
  </g>
  <g>
    <path style="opacity:1" fill="#2760b5" d="M 1151.5,348.5 C 1155.82,364.364 1149.49,371.197 1132.5,369C 1127.61,364.284 1127.27,359.284 1131.5,354C 1138.21,351.843 1144.88,350.01 1151.5,348.5 Z"></path>
  </g>
  <g>
    <path style="opacity:0.999" fill="#f37215" d="M 24.5,445.5 C 435.167,445.5 845.833,445.5 1256.5,445.5C 1256.5,470.167 1256.5,494.833 1256.5,519.5C 845.833,519.5 435.167,519.5 24.5,519.5C 24.5,494.833 24.5,470.167 24.5,445.5 Z"></path>
  </g>
  <g>
    <path style="opacity:1" fill="#221e1f" d="M 456.5,571.5 C 459.32,571.248 461.986,571.748 464.5,573C 466.58,578.262 464.746,580.762 459,580.5C 455.501,579.831 452.001,579.664 448.5,580C 447.667,580.833 446.833,581.667 446,582.5C 442.37,593.682 439.704,605.015 438,616.5C 444.114,609.533 451.614,605.366 460.5,604C 463.287,606.167 464.12,609.001 463,612.5C 459.693,623.397 456.859,634.397 454.5,645.5C 458.841,644.569 462.341,642.236 465,638.5C 467.791,640.57 467.624,642.736 464.5,645C 460.3,648.6 455.633,651.433 450.5,653.5C 445.892,651.239 444.392,647.572 446,642.5C 448.664,632.179 451.164,621.846 453.5,611.5C 446.348,613.166 440.848,617.166 437,623.5C 434.033,632.366 431.533,641.366 429.5,650.5C 426.572,651.484 423.572,651.817 420.5,651.5C 425.22,630.405 430.386,609.405 436,588.5C 440.262,579.634 447.095,573.967 456.5,571.5 Z"></path>
  </g>
  <g>
    <path style="opacity:1" fill="#221e1f" d="M 901.5,571.5 C 906.596,571.317 908.763,573.65 908,578.5C 906.178,580.045 904.011,580.712 901.5,580.5C 898.977,580.331 896.477,579.998 894,579.5C 892.188,579.493 890.688,580.16 889.5,581.5C 884.225,598.267 879.725,615.267 876,632.5C 874.756,636.779 874.423,641.112 875,645.5C 878.3,643.698 881.467,641.698 884.5,639.5C 886.101,640.035 886.601,641.035 886,642.5C 880.704,647.629 874.537,651.296 867.5,653.5C 865.431,653.215 864.098,652.048 863.5,650C 864.567,647.902 865.067,645.735 865,643.5C 846.917,659.926 839.251,656.259 842,632.5C 845.969,618.868 854.469,609.368 867.5,604C 869.81,603.503 872.143,603.337 874.5,603.5C 876.068,586.269 885.068,575.602 901.5,571.5 Z M 862.5,610.5 C 865.833,610.5 869.167,610.5 872.5,610.5C 870.806,618.943 868.639,627.277 866,635.5C 863.479,640.189 859.646,643.189 854.5,644.5C 852.617,644.124 851.117,643.124 850,641.5C 849.399,629.114 853.566,618.78 862.5,610.5 Z"></path>
  </g>
  <g>
    <path style="opacity:1" fill="#221e1f" d="M 1103.5,571.5 C 1108.9,571.071 1111.4,573.404 1111,578.5C 1110.5,579 1110,579.5 1109.5,580C 1105.48,580.609 1101.48,580.442 1097.5,579.5C 1095.52,579.437 1093.85,580.104 1092.5,581.5C 1088.4,591.492 1085.9,601.826 1085,612.5C 1090.44,606.194 1097.27,603.361 1105.5,604C 1109.03,606.707 1110.2,610.207 1109,614.5C 1107.6,617.902 1105.43,620.736 1102.5,623C 1097.37,625.283 1092.04,626.949 1086.5,628C 1090.61,629.779 1093.78,632.612 1096,636.5C 1100.26,646.854 1105.43,656.688 1111.5,666C 1115.22,668.298 1119.22,668.965 1123.5,668C 1124.36,667.311 1125.02,666.478 1125.5,665.5C 1122.83,659.063 1124.67,656.73 1131,658.5C 1133.05,664.901 1130.88,669.401 1124.5,672C 1111.88,674.753 1102.72,670.253 1097,658.5C 1093,649.833 1089,641.167 1085,632.5C 1083.67,631.167 1082.33,629.833 1081,628.5C 1078.7,636.05 1076.86,643.717 1075.5,651.5C 1072.5,651.5 1069.5,651.5 1066.5,651.5C 1070.86,631.068 1075.69,610.735 1081,590.5C 1085.13,580.038 1092.63,573.705 1103.5,571.5 Z M 1095.5,609.5 C 1098.24,608.965 1100.07,609.965 1101,612.5C 1101.09,618.747 1097.93,622.247 1091.5,623C 1088.17,623.61 1084.84,624.11 1081.5,624.5C 1081.34,623.127 1081.51,621.793 1082,620.5C 1086.4,616.591 1090.9,612.924 1095.5,609.5 Z"></path>
  </g>
  <g>
    <path style="opacity:1" fill="#221e1f" d="M 643.5,572.5 C 646.85,572.335 650.183,572.502 653.5,573C 656.054,575.398 656.054,577.731 653.5,580C 649.304,580.664 645.138,580.497 641,579.5C 638.849,579.643 637.182,580.643 636,582.5C 633.144,592.132 630.811,601.798 629,611.5C 633.256,607.121 638.423,604.455 644.5,603.5C 651.245,605.425 654.245,609.925 653.5,617C 652.583,631.512 646.25,642.846 634.5,651C 627.074,654.714 620.574,653.547 615,647.5C 614.192,645.577 613.692,643.577 613.5,641.5C 616.552,625.405 620.052,609.405 624,593.5C 626.95,583.055 633.45,576.055 643.5,572.5 Z M 637.5,610.5 C 640.415,610.913 642.248,612.579 643,615.5C 644.094,625.7 641.761,635.033 636,643.5C 632.188,649.003 627.855,649.67 623,645.5C 621.711,634.987 624.045,625.32 630,616.5C 632.114,613.879 634.614,611.879 637.5,610.5 Z"></path>
  </g>
  <g>
    <path style="opacity:1" fill="#221e1f" d="M 950.5,572.5 C 953.85,572.335 957.183,572.502 960.5,573C 963.59,578.612 961.757,581.112 955,580.5C 952.468,580.376 949.968,580.043 947.5,579.5C 945.617,579.876 944.117,580.876 943,582.5C 939.866,592.033 937.533,601.7 936,611.5C 941.349,605.387 947.849,603.221 955.5,605C 958.699,608.115 960.366,611.948 960.5,616.5C 959.828,629.676 954.495,640.509 944.5,649C 938.091,653.358 931.424,654.025 924.5,651C 920.809,646.827 919.642,641.993 921,636.5C 924.111,619.942 928.111,603.609 933,587.5C 936.889,580.103 942.722,575.103 950.5,572.5 Z M 944.5,610.5 C 947.518,611.353 949.351,613.353 950,616.5C 950.586,626.744 947.92,636.077 942,644.5C 935.528,650.674 931.028,649.507 928.5,641C 929.226,632.593 931.726,624.76 936,617.5C 938.441,614.546 941.275,612.213 944.5,610.5 Z"></path>
  </g>
  <g>
    <path style="opacity:1" fill="#221e1f" d="M 279.5,579.5 C 284.85,578.863 287.017,581.197 286,586.5C 284.035,590.444 281.035,591.444 277,589.5C 275.861,585.579 276.695,582.246 279.5,579.5 Z"></path>
  </g>
  <g>
    <path style="opacity:1" fill="#221e1f" d="M 492.5,579.5 C 498.923,579.678 500.756,582.678 498,588.5C 493.535,591.815 490.368,590.981 488.5,586C 489.234,583.439 490.567,581.273 492.5,579.5 Z"></path>
  </g>
  <g>
    <path style="opacity:1" fill="#221e1f" d="M 1138.5,579.5 C 1143.99,579.504 1145.82,582.171 1144,587.5C 1139.85,591.868 1136.69,591.368 1134.5,586C 1134.72,583.038 1136.06,580.871 1138.5,579.5 Z"></path>
  </g>
  <g>
    <path style="opacity:1" fill="#221e1f" d="M 71.5,583.5 C 81.2052,582.238 90.2052,584.071 98.5,589C 104.424,599.275 102.424,607.941 92.5,615C 88.5811,616.862 84.5811,618.529 80.5,620C 85.2445,632.325 90.4111,644.492 96,656.5C 98.9018,660.578 102.735,663.245 107.5,664.5C 112.072,664.429 114.572,662.096 115,657.5C 118.049,653.605 120.549,653.939 122.5,658.5C 121.712,663.787 118.712,666.954 113.5,668C 106.532,669.462 100.199,668.129 94.5,664C 90.2477,660.419 86.7477,656.252 84,651.5C 79.3308,640.986 75.1641,630.319 71.5,619.5C 70.914,619.709 70.414,620.043 70,620.5C 67.5138,629.777 65.3472,639.11 63.5,648.5C 66.7766,648.784 69.9433,648.451 73,647.5C 73.4317,650.079 72.2651,651.579 69.5,652C 60.8265,651.321 52.1598,651.488 43.5,652.5C 43.33,651.178 43.6634,650.011 44.5,649C 52.2229,647.274 56.3896,642.441 57,634.5C 59.9127,623.016 62.746,611.516 65.5,600C 63.8881,598.518 62.8881,596.685 62.5,594.5C 67.2016,594.05 71.8683,593.383 76.5,592.5C 74.9917,600.2 73.325,607.867 71.5,615.5C 80.7555,616.624 87.2555,612.958 91,604.5C 92.7041,593.367 87.8708,588.034 76.5,588.5C 58.5368,589.14 47.5368,598.14 43.5,615.5C 44.735,620.306 47.235,624.306 51,627.5C 51.5,631 50,632.5 46.5,632C 41.005,628.378 38.6717,623.211 39.5,616.5C 40.4259,603.405 46.7592,593.905 58.5,588C 62.8927,586.329 67.226,584.829 71.5,583.5 Z"></path>
  </g>
  <g>
    <path style="opacity:1" fill="#221e1f" d="M 244.5,591.5 C 245.497,591.47 246.164,591.97 246.5,593C 245.266,597.535 243.933,602.035 242.5,606.5C 246.107,607.489 249.774,607.823 253.5,607.5C 253.5,609.167 253.5,610.833 253.5,612.5C 249.445,612.176 245.445,612.509 241.5,613.5C 238.053,623.279 235.887,633.279 235,643.5C 235.561,644.022 236.228,644.355 237,644.5C 241.731,642.218 246.231,639.551 250.5,636.5C 251.646,637.145 252.646,637.978 253.5,639C 246.372,645.298 238.372,650.132 229.5,653.5C 226.117,652.238 224.451,649.738 224.5,646C 226.462,634.987 229.128,624.154 232.5,613.5C 229.5,612.833 226.5,612.167 223.5,611.5C 224.246,610.264 224.579,608.93 224.5,607.5C 227.777,607.784 230.943,607.451 234,606.5C 235.154,602.553 235.987,598.553 236.5,594.5C 239.542,594.267 242.208,593.267 244.5,591.5 Z"></path>
  </g>
  <g>
    <path style="opacity:1" fill="#221e1f" d="M 182.5,571.5 C 190.061,570.86 192.061,573.693 188.5,580C 184.476,580.609 180.476,580.442 176.5,579.5C 174.519,579.437 172.852,580.104 171.5,581.5C 165.228,602.587 159.895,623.92 155.5,645.5C 156.873,645.657 158.207,645.49 159.5,645C 162.692,642.308 166.025,639.808 169.5,637.5C 170.167,637.833 170.833,638.167 171.5,638.5C 174.826,623.69 183.159,612.857 196.5,606C 201.104,604.939 205.771,604.273 210.5,604C 211.891,602.98 213.391,602.147 215,601.5C 211.344,615.657 208.177,629.99 205.5,644.5C 209.581,643.6 213.081,641.6 216,638.5C 216.833,639.333 217.667,640.167 218.5,641C 213.248,647.416 206.582,651.583 198.5,653.5C 196.616,652.885 195.616,651.552 195.5,649.5C 196.021,647.476 196.188,645.476 196,643.5C 191.339,648.246 185.839,651.579 179.5,653.5C 176.308,653.139 174.141,651.472 173,648.5C 172.08,645.899 171.413,643.232 171,640.5C 165.633,646.874 158.966,651.207 151,653.5C 149.488,652.743 148.154,651.743 147,650.5C 146.746,644.758 147.413,639.091 149,633.5C 152.511,619.124 156.177,604.791 160,590.5C 164.089,579.895 171.589,573.562 182.5,571.5 Z M 195.5,611.5 C 198.167,611.5 200.833,611.5 203.5,611.5C 202.246,620.515 199.746,629.182 196,637.5C 193.394,641.289 189.894,643.622 185.5,644.5C 184.006,644.291 182.839,643.624 182,642.5C 180.042,629.168 184.542,618.834 195.5,611.5 Z"></path>
  </g>
  <g>
    <path style="opacity:1" fill="#221e1f" d="M 1006.5,601.5 C 1007.1,601.735 1007.43,602.235 1007.5,603C 1003.14,616.598 999.809,630.432 997.5,644.5C 1001.58,643.6 1005.08,641.6 1008,638.5C 1008.83,639.333 1009.67,640.167 1010.5,641C 1005.25,647.416 998.582,651.583 990.5,653.5C 989.833,653.167 989.167,652.833 988.5,652.5C 987.668,649.518 987.501,646.518 988,643.5C 983.431,648.115 978.097,651.448 972,653.5C 967.37,652.87 964.703,650.204 964,645.5C 964.386,627.459 972.552,614.292 988.5,606C 993.123,605.042 997.79,604.375 1002.5,604C 1003.86,603.066 1005.19,602.232 1006.5,601.5 Z M 987.5,611.5 C 990.167,611.5 992.833,611.5 995.5,611.5C 994.246,620.515 991.746,629.182 988,637.5C 976.619,648.623 971.952,646.29 974,630.5C 975.593,621.941 980.093,615.607 987.5,611.5 Z"></path>
  </g>
  <g>
    <path style="opacity:1" fill="#221e1f" d="M 1235.5,602.5 C 1236.87,602.343 1238.21,602.51 1239.5,603C 1232.06,624.256 1227.23,646.09 1225,668.5C 1216.53,680.391 1205.37,683.891 1191.5,679C 1184.26,673.159 1183.59,666.492 1189.5,659C 1193.24,656.268 1197.24,653.934 1201.5,652C 1196.87,650.598 1194.87,647.431 1195.5,642.5C 1198.61,618.72 1211.95,605.387 1235.5,602.5 Z M 1221.5,611.5 C 1223.83,611.247 1225.83,611.914 1227.5,613.5C 1225.49,620.541 1223.32,627.541 1221,634.5C 1218.58,639.923 1214.58,643.589 1209,645.5C 1205.66,644.331 1204.16,641.997 1204.5,638.5C 1205.04,630.333 1207.7,623 1212.5,616.5C 1215.15,614.011 1218.15,612.344 1221.5,611.5 Z M 1217.5,644.5 C 1220.37,652.904 1219.54,661.237 1215,669.5C 1209.34,676.612 1202.51,678.112 1194.5,674C 1192.08,670.621 1191.91,667.121 1194,663.5C 1201.81,657.028 1209.65,650.694 1217.5,644.5 Z"></path>
  </g>
  <g>
    <path style="opacity:1" fill="#221e1f" d="M 129.5,603.5 C 139.33,601.829 143.163,605.829 141,615.5C 139.939,618.562 138.106,621.062 135.5,623C 129.658,626.421 123.658,629.588 117.5,632.5C 116.343,635.784 116.176,639.118 117,642.5C 119.121,644.457 121.621,644.957 124.5,644C 128.589,641.873 132.423,639.373 136,636.5C 137.022,637.354 137.855,638.354 138.5,639.5C 134.236,644.26 129.236,648.093 123.5,651C 112.24,655.941 106.574,652.441 106.5,640.5C 106.923,623.258 114.59,610.924 129.5,603.5 Z M 125.5,609.5 C 132.065,608.422 134.232,611.089 132,617.5C 128.044,622.532 123.21,625.532 117.5,626.5C 118.842,620.151 121.509,614.485 125.5,609.5 Z"></path>
  </g>
  <g>
    <path style="opacity:1" fill="#221e1f" d="M 271.5,603.5 C 273.857,603.337 276.19,603.503 278.5,604C 279.097,605.062 279.43,606.228 279.5,607.5C 276.295,619.116 273.295,630.782 270.5,642.5C 270.833,643.5 271.167,644.5 271.5,645.5C 274.77,643.733 277.603,641.4 280,638.5C 281.022,639.354 281.855,640.354 282.5,641.5C 277.945,647.052 272.278,651.052 265.5,653.5C 262.34,652.678 260.673,650.678 260.5,647.5C 262.794,635.491 265.794,623.658 269.5,612C 269.15,610.743 268.483,610.409 267.5,611C 264.72,612.812 262.22,614.979 260,617.5C 258.842,617.002 258.009,616.169 257.5,615C 258.439,613.056 259.773,611.389 261.5,610C 264.728,607.56 268.061,605.394 271.5,603.5 Z"></path>
  </g>
  <g>
    <path style="opacity:1" fill="#221e1f" d="M 308.5,603.5 C 318.026,602.202 323.859,606.202 326,615.5C 327.297,635.243 318.463,647.909 299.5,653.5C 294.159,653.084 289.992,650.75 287,646.5C 283.045,626.409 290.212,612.076 308.5,603.5 Z M 306.5,608.5 C 309.421,608.146 311.754,609.146 313.5,611.5C 317.528,622.16 316.695,632.494 311,642.5C 306.098,649.115 301.431,649.115 297,642.5C 294.408,632.783 295.408,623.45 300,614.5C 302.063,612.266 304.229,610.266 306.5,608.5 Z"></path>
  </g>
  <g>
    <path style="opacity:1" fill="#221e1f" d="M 346.5,603.5 C 348.467,603.261 350.301,603.594 352,604.5C 352.045,608.58 351.712,612.58 351,616.5C 357.114,609.533 364.614,605.366 373.5,604C 374.308,604.308 374.975,604.808 375.5,605.5C 376.562,608.103 376.728,610.77 376,613.5C 372.537,624.019 369.704,634.685 367.5,645.5C 371.886,644.634 375.386,642.301 378,638.5C 378.833,639.333 379.667,640.167 380.5,641C 376.076,646.933 370.409,651.1 363.5,653.5C 358.892,651.239 357.392,647.572 359,642.5C 361.187,633.084 363.687,623.751 366.5,614.5C 366.547,613 365.881,612 364.5,611.5C 358.305,613.862 353.472,617.862 350,623.5C 347.058,632.373 344.558,641.373 342.5,650.5C 339.572,651.484 336.572,651.817 333.5,651.5C 337.139,637.953 339.972,624.286 342,610.5C 339,612.833 336,615.167 333,617.5C 332.167,616.667 331.333,615.833 330.5,615C 335.199,610.111 340.533,606.278 346.5,603.5 Z"></path>
  </g>
  <g>
    <path style="opacity:1" fill="#221e1f" d="M 404.5,603.5 C 409.364,603.001 413.864,604.001 418,606.5C 420.765,612.399 418.932,614.899 412.5,614C 409.926,608.329 406.093,607.162 401,610.5C 400.333,612.833 400.333,615.167 401,617.5C 405.4,621.967 409.066,626.967 412,632.5C 414.577,640.667 412.077,646.834 404.5,651C 398.92,652.517 393.253,652.851 387.5,652C 381.327,649.062 379.994,644.729 383.5,639C 388.67,637.673 390.67,639.507 389.5,644.5C 394.126,649.74 398.959,649.74 404,644.5C 404.667,642.167 404.667,639.833 404,637.5C 400.425,633.347 397.091,629.014 394,624.5C 390.618,613.931 394.118,606.931 404.5,603.5 Z"></path>
  </g>
  <g>
    <path style="opacity:1" fill="#221e1f" d="M 484.5,603.5 C 486.857,603.337 489.19,603.503 491.5,604C 492.081,604.893 492.415,605.893 492.5,607C 489.668,617.498 486.834,627.998 484,638.5C 483.186,640.902 483.353,643.235 484.5,645.5C 487.609,643.525 490.443,641.192 493,638.5C 494.022,639.354 494.855,640.354 495.5,641.5C 490.945,647.052 485.278,651.052 478.5,653.5C 475.102,652.608 473.435,650.442 473.5,647C 475.56,635.092 478.56,623.426 482.5,612C 482.15,610.743 481.483,610.409 480.5,611C 477.705,612.793 475.205,614.96 473,617.5C 471.842,617.002 471.009,616.169 470.5,615C 474.22,609.979 478.887,606.145 484.5,603.5 Z"></path>
  </g>
  <g>
    <path style="opacity:1" fill="#221e1f" d="M 511.5,603.5 C 514.119,603.232 516.619,603.565 519,604.5C 519.415,608.31 519.082,611.977 518,615.5C 522.693,610.468 528.193,606.635 534.5,604C 542.659,603.553 545.992,607.553 544.5,616C 543.898,631.887 536.898,643.887 523.5,652C 519.13,653.832 514.797,653.665 510.5,651.5C 509.808,652.025 509.308,652.692 509,653.5C 507.011,660.108 505.678,666.774 505,673.5C 508.641,675.165 512.475,676.332 516.5,677C 515.663,678.011 515.33,679.178 515.5,680.5C 505.744,679.513 496.077,679.179 486.5,679.5C 490.134,677.081 493.3,674.081 496,670.5C 500.977,650.925 505.477,631.258 509.5,611.5C 505.501,612.928 502.001,615.261 499,618.5C 498.167,617.667 497.333,616.833 496.5,616C 497.79,613.708 499.457,611.708 501.5,610C 504.728,607.56 508.061,605.394 511.5,603.5 Z M 529.5,611.5 C 534.145,611.478 536.479,613.812 536.5,618.5C 535.556,627.498 532.723,635.831 528,643.5C 521.857,650.403 516.357,650.069 511.5,642.5C 512.15,628.843 518.15,618.51 529.5,611.5 Z"></path>
  </g>
  <g>
    <path style="opacity:1" fill="#221e1f" d="M 569.5,603.5 C 576.112,602.304 581.112,604.471 584.5,610C 583.775,614.084 581.442,615.418 577.5,614C 575.825,612.291 574.158,610.624 572.5,609C 565.999,608.188 563.832,611.021 566,617.5C 569.667,622.5 573.333,627.5 577,632.5C 579.126,642.084 575.626,648.584 566.5,652C 561.833,652.667 557.167,652.667 552.5,652C 546.533,649.055 544.867,644.721 547.5,639C 549.5,638.333 551.5,638.333 553.5,639C 554.079,642.139 555.079,645.139 556.5,648C 565.053,650.17 569.22,647.004 569,638.5C 566.385,634.217 563.385,630.217 560,626.5C 554.937,615.304 558.104,607.638 569.5,603.5 Z"></path>
  </g>
  <g>
    <path style="opacity:1" fill="#221e1f" d="M 680.5,603.5 C 694.273,603.581 697.273,609.415 689.5,621C 683.201,625.734 676.368,629.568 669,632.5C 665.301,642.673 668.468,646.173 678.5,643C 681.927,641.204 685.094,639.037 688,636.5C 689.022,637.354 689.855,638.354 690.5,639.5C 685.19,644.641 679.19,648.808 672.5,652C 662.556,654.873 657.556,651.207 657.5,641C 658.269,627.463 663.603,616.13 673.5,607C 675.925,605.787 678.259,604.621 680.5,603.5 Z M 677.5,609.5 C 686.208,611.546 686.874,615.713 679.5,622C 676.5,623.833 673.5,625.667 670.5,627.5C 670.047,620.541 672.38,614.541 677.5,609.5 Z"></path>
  </g>
  <g>
    <path style="opacity:1" fill="#221e1f" d="M 708.5,603.5 C 710.722,603.178 712.556,603.845 714,605.5C 720.922,616.841 724.922,629.174 726,642.5C 729.317,636.883 731.65,630.883 733,624.5C 733.39,618.089 733.057,611.755 732,605.5C 735.156,602.601 737.822,602.935 740,606.5C 740.024,621.104 736.357,634.77 729,647.5C 723.526,658.623 716.026,668.123 706.5,676C 699.682,680.697 692.515,681.531 685,678.5C 684.104,675.975 684.604,673.808 686.5,672C 701.867,675.943 712.034,670.443 717,655.5C 718.247,642.317 716.247,629.65 711,617.5C 707.499,611.505 702.999,610.838 697.5,615.5C 696.28,615.113 695.613,614.28 695.5,613C 699.515,609.333 703.849,606.166 708.5,603.5 Z"></path>
  </g>
  <g>
    <path style="opacity:1" fill="#221e1f" d="M 766.5,603.5 C 778.507,603.006 784.507,608.839 784.5,621C 782.881,638.281 773.714,649.115 757,653.5C 747.499,652.495 742.665,647.162 742.5,637.5C 743.692,621.042 751.692,609.709 766.5,603.5 Z M 764.5,608.5 C 767.785,608.269 770.285,609.603 772,612.5C 774.703,622.905 773.703,632.905 769,642.5C 766.367,647.067 762.533,648.567 757.5,647C 755.683,645.2 754.516,643.034 754,640.5C 751.072,627.489 754.572,616.823 764.5,608.5 Z"></path>
  </g>
  <g>
    <path style="opacity:1" fill="#221e1f" d="M 804.5,603.5 C 806.467,603.261 808.301,603.594 810,604.5C 809.793,608.525 809.46,612.525 809,616.5C 814.379,610.109 821.046,605.775 829,603.5C 834.023,604.542 835.69,607.542 834,612.5C 830.441,623.337 827.608,634.337 825.5,645.5C 829.841,644.569 833.341,642.236 836,638.5C 836.833,639.333 837.667,640.167 838.5,641C 833.865,646.643 828.198,650.81 821.5,653.5C 819.742,652.872 818.242,651.872 817,650.5C 816.376,645.777 816.71,641.11 818,636.5C 820.369,629.059 822.536,621.559 824.5,614C 824.387,612.72 823.72,611.887 822.5,611.5C 814.863,614.637 809.363,619.97 806,627.5C 804.1,635.5 802.267,643.5 800.5,651.5C 797.5,651.5 794.5,651.5 791.5,651.5C 795.047,637.928 797.881,624.261 800,610.5C 796.638,612.35 793.638,614.683 791,617.5C 790.167,616.667 789.333,615.833 788.5,615C 793.199,610.111 798.533,606.278 804.5,603.5 Z"></path>
  </g>
  <g>
    <path style="opacity:1" fill="#221e1f" d="M 1028.5,603.5 C 1030.5,603.5 1032.5,603.5 1034.5,603.5C 1034.41,607.968 1033.91,612.301 1033,616.5C 1039.3,609.142 1047.14,604.975 1056.5,604C 1058.5,606.841 1059,610.007 1058,613.5C 1054.86,623.764 1052.02,634.098 1049.5,644.5C 1051.19,645.568 1052.85,645.401 1054.5,644C 1056.39,641.81 1058.56,639.977 1061,638.5C 1061.5,639.5 1062,640.5 1062.5,641.5C 1057.94,647.052 1052.28,651.052 1045.5,653.5C 1042.12,652.238 1040.45,649.738 1040.5,646C 1042.3,636.313 1044.8,626.813 1048,617.5C 1048.81,615.421 1048.64,613.421 1047.5,611.5C 1041.12,613.94 1035.95,617.94 1032,623.5C 1029.2,632.376 1026.86,641.376 1025,650.5C 1021.88,651.787 1018.71,651.787 1015.5,650.5C 1019.62,637.38 1022.45,624.047 1024,610.5C 1021.02,612.644 1018.19,614.978 1015.5,617.5C 1014.28,617.113 1013.61,616.28 1013.5,615C 1015.77,612.733 1018.1,610.4 1020.5,608C 1023.39,606.726 1026.06,605.226 1028.5,603.5 Z"></path>
  </g>
  <g>
    <path style="opacity:1" fill="#221e1f" d="M 1130.5,603.5 C 1134.17,602.697 1136.84,603.864 1138.5,607C 1134.67,619.001 1131.33,631.168 1128.5,643.5C 1128.83,644.167 1129.17,644.833 1129.5,645.5C 1132.48,643.68 1135.32,641.68 1138,639.5C 1139.28,639.613 1140.11,640.28 1140.5,641.5C 1135.98,646.851 1130.48,650.851 1124,653.5C 1120.1,652.818 1118.6,650.485 1119.5,646.5C 1120.9,635.906 1123.4,625.573 1127,615.5C 1127.67,613.833 1127.67,612.167 1127,610.5C 1124.02,612.644 1121.19,614.978 1118.5,617.5C 1117.35,616.855 1116.35,616.022 1115.5,615C 1119.57,609.741 1124.57,605.908 1130.5,603.5 Z"></path>
  </g>
  <g>
    <path style="opacity:1" fill="#221e1f" d="M 1158.5,603.5 C 1160.79,603.244 1162.96,603.577 1165,604.5C 1164.67,608.5 1164.33,612.5 1164,616.5C 1169.38,610.109 1176.05,605.775 1184,603.5C 1187.36,604.024 1189.19,606.024 1189.5,609.5C 1185.87,621.37 1182.87,633.37 1180.5,645.5C 1184.5,644.072 1188,641.739 1191,638.5C 1191.87,639.108 1192.37,639.941 1192.5,641C 1188.36,646.984 1182.86,651.151 1176,653.5C 1174.49,652.743 1173.15,651.743 1172,650.5C 1171.33,647.167 1171.33,643.833 1172,640.5C 1174.35,631.45 1176.85,622.45 1179.5,613.5C 1179.17,612.5 1178.5,611.833 1177.5,611.5C 1170.97,614.2 1165.8,618.533 1162,624.5C 1159.36,633.394 1157.19,642.394 1155.5,651.5C 1152.5,651.5 1149.5,651.5 1146.5,651.5C 1149.34,638.48 1152.34,625.48 1155.5,612.5C 1155.33,611.833 1155.17,611.167 1155,610.5C 1151.57,612.467 1148.4,614.801 1145.5,617.5C 1144.5,617.167 1143.83,616.5 1143.5,615.5C 1147.94,610.716 1152.94,606.716 1158.5,603.5 Z"></path>
  </g>
  <g>
    <path style="opacity:1" fill="#221e1f" d="M 1244.5,638.5 C 1251.81,638.666 1254.31,642.333 1252,649.5C 1246.82,654.885 1242.99,654.052 1240.5,647C 1240.79,643.61 1242.12,640.777 1244.5,638.5 Z"></path>
  </g>
</svg>
