<svg xmlns="http://www.w3.org/2000/svg" xmlns:xlink="http://www.w3.org/1999/xlink" viewBox="0 0 1421.63 632.15"><defs><style>.cls-1{fill:url(#linear-gradient);}.cls-2{fill:url(#linear-gradient-2);}.cls-3{fill:url(#linear-gradient-3);}.cls-4{fill:url(#linear-gradient-4);}.cls-5{fill:url(#linear-gradient-5);}.cls-6{fill:url(#linear-gradient-6);}.cls-7{fill:url(#linear-gradient-7);}.cls-8{fill:url(#linear-gradient-8);}.cls-9{fill:#38bdf8;}</style><linearGradient id="linear-gradient" x1="4.07" y1="255.36" x2="440.51" y2="255.36" gradientUnits="userSpaceOnUse"><stop offset="0" stop-color="#304ffe"/><stop offset="0.22" stop-color="#2f52fe"/><stop offset="0.4" stop-color="#2b5cfe"/><stop offset="0.57" stop-color="#246dfe"/><stop offset="0.72" stop-color="#1a85fe"/><stop offset="0.87" stop-color="#0ea3ff"/><stop offset="1" stop-color="#00c6ff"/></linearGradient><linearGradient id="linear-gradient-2" x1="121.17" y1="213.1" x2="314.62" y2="406.54" xlink:href="#linear-gradient"/><linearGradient id="linear-gradient-3" x1="492.29" y1="277.64" x2="616.31" y2="401.65" xlink:href="#linear-gradient"/><linearGradient id="linear-gradient-4" x1="664.18" y1="272.7" x2="769.28" y2="377.81" xlink:href="#linear-gradient"/><linearGradient id="linear-gradient-5" x1="809.2" y1="272.7" x2="914.31" y2="377.81" xlink:href="#linear-gradient"/><linearGradient id="linear-gradient-6" x1="932.1" y1="245.72" x2="1060.81" y2="374.43" xlink:href="#linear-gradient"/><linearGradient id="linear-gradient-7" x1="1077.5" y1="276.96" x2="1200.79" y2="400.26" xlink:href="#linear-gradient"/><linearGradient id="linear-gradient-8" x1="1271.72" y1="277.64" x2="1395.74" y2="401.65" xlink:href="#linear-gradient"/></defs><g id="Layer_2" data-name="Layer 2"><g id="Layer_1-2" data-name="Layer 1"><path class="cls-1" d="M440.51,213c.05-11.53-3.67-19.76-11.91-27.56Q337.8,99.51,247.52,13.08c-17.82-17-28-17.61-46-.8Q108.69,98.86,16.23,185.85C7.71,193.82,4,203.06,4.07,215c.35,86.41.21,172.81.24,259.22,0,26,10.53,36.52,36.62,36.52q90.14,0,180.27,0,90.8,0,181.58,0c27,0,37.47-10.42,37.48-37.19C440.29,386.65,440.11,299.81,440.51,213ZM380.59,442.17c0,.82-.46,1.64-1,3.6H63.08c-.27-3.42-.89-7.56-.88-11.7.22-69.31.42-138.62,1-207.92,0-5.09,1.82-11.73,5.3-15C120,162.82,171.86,114.92,224.77,65.86c23.51,22.22,46.46,43.79,69.27,65.51,26.69,25.41,53.37,50.82,79.72,76.57,3.38,3.31,6.72,8.68,6.74,13.11C380.86,294.76,380.68,368.46,380.59,442.17Z" transform="translate(-4.07)"/><path class="cls-2" d="M102.55,427.13l5.83-35.27,135.42-148H133.26l8.5-51.34H333.24l-5.83,35.28L192,375.8H302.53L294,427.13Z" transform="translate(-4.07)"/><path class="cls-3" d="M542.66,430.28q-26,0-43.93-9.29a63.56,63.56,0,0,1-27.24-26.14q-9.3-16.85-9.29-39.36a118.58,118.58,0,0,1,6.93-40.63,103,103,0,0,1,20.23-34.09A93.86,93.86,0,0,1,522,257.39q19.29-8.5,44.17-8.5,25.82,0,43.7,9.29A63.75,63.75,0,0,1,637,284.32q9.28,16.85,9.29,39.36a121,121,0,0,1-6.77,40.47,101.66,101.66,0,0,1-20,34.09A94,94,0,0,1,587,421.7Q567.69,430.28,542.66,430.28ZM545.18,383A25.41,25.41,0,0,0,563,376.43a47.74,47.74,0,0,0,11.57-16.61,91.81,91.81,0,0,0,6.22-20.63,106.63,106.63,0,0,0,1.89-18.5,34.16,34.16,0,0,0-2.36-13.62,18,18,0,0,0-6.61-8.19,18.2,18.2,0,0,0-10.08-2.75q-10.71,0-18,6.45a46.23,46.23,0,0,0-11.65,16.3,89.75,89.75,0,0,0-6.22,20.31,105.65,105.65,0,0,0-1.89,18.5q0,12.29,5.27,18.82A17.19,17.19,0,0,0,545.18,383Z" transform="translate(-4.07)"/><path class="cls-4" d="M656.66,427.13l29.13-176H747.2l-5.51,33.7h1.89q7.88-18.74,19.68-27.32a43,43,0,0,1,25.83-8.58,52.27,52.27,0,0,1,8.11.63,43.88,43.88,0,0,1,7.63,1.89l-9,53.85a43.1,43.1,0,0,0-11.18-2.44,115.15,115.15,0,0,0-11.65-.71,37,37,0,0,0-17.32,4.17,38.25,38.25,0,0,0-13.47,11.65,41.29,41.29,0,0,0-7.16,17.56L720,427.13Z" transform="translate(-4.07)"/><path class="cls-5" d="M801.68,427.13l29.13-176h61.41l-5.51,33.7h1.89q7.88-18.74,19.68-27.32a43,43,0,0,1,25.83-8.58,52.27,52.27,0,0,1,8.11.63,43.88,43.88,0,0,1,7.63,1.89l-9,53.85a43.1,43.1,0,0,0-11.18-2.44,115.15,115.15,0,0,0-11.65-.71,37,37,0,0,0-17.32,4.17,38.25,38.25,0,0,0-13.47,11.65,41.29,41.29,0,0,0-7.16,17.56L865,427.13Z" transform="translate(-4.07)"/><path class="cls-6" d="M944.82,427.13l29.12-176h63.3l-29.13,176Zm63.61-194q-12.91,0-20.63-8.5T982,204.17q2-12.12,12.59-20.55a36.69,36.69,0,0,1,23.47-8.43q12.9,0,20.62,8.43t5.67,20.55q-1.89,12-12.44,20.47A36.46,36.46,0,0,1,1008.43,233.14Z" transform="translate(-4.07)"/><path class="cls-7" d="M1127.78,430.28q-25.18,0-43.14-9.45a65.75,65.75,0,0,1-27.48-26.45q-9.53-17-9.52-39.84a121.65,121.65,0,0,1,6.3-38.73,101.47,101.47,0,0,1,19.13-34,91.49,91.49,0,0,1,32.36-24q19.52-8.89,45.82-8.89a105.43,105.43,0,0,1,32.75,4.72,71.18,71.18,0,0,1,24.64,13.46,54.06,54.06,0,0,1,15.12,21.1,63.11,63.11,0,0,1,4,27.64l-59.67,8.66a93,93,0,0,0-.71-12.2,27.11,27.11,0,0,0-2.6-8.9,12.49,12.49,0,0,0-5.28-5.43,18,18,0,0,0-8.58-1.81q-11,0-18.66,6.06a43.33,43.33,0,0,0-12.2,15.67,83.52,83.52,0,0,0-6.61,20.15,102.54,102.54,0,0,0-2,19.53,43.63,43.63,0,0,0,2,14.09,16.36,16.36,0,0,0,6.14,8.58A18.21,18.21,0,0,0,1130,383a28.93,28.93,0,0,0,10.23-1.89,32.24,32.24,0,0,0,9.45-5.59,40.1,40.1,0,0,0,7.95-9.21,51.07,51.07,0,0,0,5.75-12.59l56.69,8.5a100.6,100.6,0,0,1-12.28,28.26A82.76,82.76,0,0,1,1188,411.94a87,87,0,0,1-26.84,13.62A111.56,111.56,0,0,1,1127.78,430.28Z" transform="translate(-4.07)"/><path class="cls-8" d="M1322.09,430.28q-26,0-43.93-9.29a63.56,63.56,0,0,1-27.24-26.14q-9.29-16.85-9.29-39.36a118.82,118.82,0,0,1,6.93-40.63,103.17,103.17,0,0,1,20.23-34.09,93.89,93.89,0,0,1,32.6-23.38q19.27-8.5,44.16-8.5,25.83,0,43.7,9.29a63.7,63.7,0,0,1,27.16,26.14q9.28,16.85,9.29,39.36a121,121,0,0,1-6.77,40.47,101.66,101.66,0,0,1-20,34.09,94,94,0,0,1-32.51,23.46Q1347.13,430.28,1322.09,430.28Zm2.52-47.24a25.41,25.41,0,0,0,17.79-6.61A47.89,47.89,0,0,0,1354,359.82a92.86,92.86,0,0,0,6.22-20.63,107.62,107.62,0,0,0,1.89-18.5,34.34,34.34,0,0,0-2.36-13.62,17.07,17.07,0,0,0-16.7-10.94,26.31,26.31,0,0,0-18,6.45,46.23,46.23,0,0,0-11.65,16.3,89.75,89.75,0,0,0-6.22,20.31,105.65,105.65,0,0,0-1.89,18.5q0,12.29,5.28,18.82A17.16,17.16,0,0,0,1324.61,383Z" transform="translate(-4.07)"/><path d="M5.51,617.52V568.2h31v6.49H13.12v15.85H34.23V597H13.12v20.52Z" transform="translate(-4.07)"/><path d="M43.25,617.52v-37h7.11v6h.4a9,9,0,0,1,3.61-4.76A10.23,10.23,0,0,1,60.21,580c.47,0,1,0,1.6,0s1.1.09,1.5.15v7a10.26,10.26,0,0,0-1.53-.26,19.63,19.63,0,0,0-2.31-.13,9.71,9.71,0,0,0-4.57,1.06,7.75,7.75,0,0,0-3.17,2.93,8.1,8.1,0,0,0-1.14,4.32v22.47Z" transform="translate(-4.07)"/><path d="M84.25,618.28a17.33,17.33,0,0,1-9.17-2.38A16.19,16.19,0,0,1,69,609.21a21.87,21.87,0,0,1-2.17-10A22.14,22.14,0,0,1,69,589.14a16.18,16.18,0,0,1,6.09-6.71,18.91,18.91,0,0,1,18.37,0,16.14,16.14,0,0,1,6.1,6.71,22.27,22.27,0,0,1,2.17,10.08,22,22,0,0,1-2.17,10,16.14,16.14,0,0,1-6.1,6.69A17.37,17.37,0,0,1,84.25,618.28Zm0-6.15a8.76,8.76,0,0,0,5.63-1.77,10.55,10.55,0,0,0,3.3-4.71,18.19,18.19,0,0,0,1.09-6.43,18.69,18.69,0,0,0-1.09-6.51,10.51,10.51,0,0,0-3.3-4.73,8.76,8.76,0,0,0-5.63-1.77A8.63,8.63,0,0,0,78.67,588a10.59,10.59,0,0,0-3.28,4.72,18.54,18.54,0,0,0-1.09,6.52,18.19,18.19,0,0,0,1.09,6.43,10.67,10.67,0,0,0,3.28,4.71A8.63,8.63,0,0,0,84.25,612.13Z" transform="translate(-4.07)"/><path d="M109.87,617.52v-37h7l.2,8.58h-.56a12.91,12.91,0,0,1,2.47-5.17,10.86,10.86,0,0,1,3.91-3,11.28,11.28,0,0,1,4.67-1,8.93,8.93,0,0,1,6.58,2.5,13.11,13.11,0,0,1,3.37,7h-.93a12.25,12.25,0,0,1,2.53-5.16,11.82,11.82,0,0,1,4.36-3.21,13.73,13.73,0,0,1,5.46-1.1,12.63,12.63,0,0,1,6,1.43,10.37,10.37,0,0,1,4.25,4.23,14.24,14.24,0,0,1,1.57,7v25h-7.34V593.29q0-3.7-2.09-5.36a7.71,7.71,0,0,0-4.93-1.66,7.83,7.83,0,0,0-4,1,6.54,6.54,0,0,0-2.57,2.67,8.27,8.27,0,0,0-.9,3.92v23.7h-7.25V592.83a6.2,6.2,0,0,0-1.92-4.77,6.9,6.9,0,0,0-4.89-1.79,7.87,7.87,0,0,0-3.79,1,7,7,0,0,0-2.81,2.78,9,9,0,0,0-1.05,4.52v23Z" transform="translate(-4.07)"/><path d="M189.41,617.52V568.2h31v6.49H197v15.85h21.11V597H197v20.52Z" transform="translate(-4.07)"/><path d="M232.85,574.85a4.55,4.55,0,0,1-3.25-1.27,4.13,4.13,0,0,1,0-6.11,4.59,4.59,0,0,1,3.25-1.26,4.69,4.69,0,0,1,3.28,1.26,4.11,4.11,0,0,1,0,6.13A4.73,4.73,0,0,1,232.85,574.85Zm-3.7,42.67v-37h7.34v37Z" transform="translate(-4.07)"/><path d="M253.72,595.61v21.91h-7.34v-37h7l.07,9.07h-.77a14.18,14.18,0,0,1,4.74-7.25,12.33,12.33,0,0,1,7.51-2.28,13.38,13.38,0,0,1,6.65,1.59,11,11,0,0,1,4.44,4.68,16.63,16.63,0,0,1,1.6,7.7v23.5h-7.34V594.91a8.8,8.8,0,0,0-2.11-6.25,7.52,7.52,0,0,0-5.77-2.25,9.12,9.12,0,0,0-4.45,1.07,7.78,7.78,0,0,0-3.1,3.13A10.15,10.15,0,0,0,253.72,595.61Z" transform="translate(-4.07)"/><path d="M301.41,618.25a14.52,14.52,0,0,1-8.08-2.3,15.32,15.32,0,0,1-5.54-6.59,27.06,27.06,0,0,1,0-20.54,15.34,15.34,0,0,1,5.58-6.52,14.59,14.59,0,0,1,8-2.25,11.78,11.78,0,0,1,5.59,1.14,10.47,10.47,0,0,1,3.33,2.67,19.52,19.52,0,0,1,1.83,2.68h.4V568.2h7.35v49.32h-7.15v-5.79h-.6a16.89,16.89,0,0,1-1.87,2.71,10.77,10.77,0,0,1-3.37,2.67A11.65,11.65,0,0,1,301.41,618.25Zm1.6-6.19a8.41,8.41,0,0,0,5.3-1.66,10.26,10.26,0,0,0,3.27-4.58,19,19,0,0,0,1.12-6.77,18.63,18.63,0,0,0-1.11-6.74,9.74,9.74,0,0,0-3.25-4.46,8.68,8.68,0,0,0-5.33-1.61,8.45,8.45,0,0,0-5.39,1.69,10.13,10.13,0,0,0-3.24,4.58,20.41,20.41,0,0,0,0,13.16,10.41,10.41,0,0,0,3.27,4.67A8.32,8.32,0,0,0,303,612.06Z" transform="translate(-4.07)"/><path d="M333.5,574.85a4.59,4.59,0,0,1-3.26-1.27,4.13,4.13,0,0,1,0-6.11,4.86,4.86,0,0,1,6.53,0,4.11,4.11,0,0,1,0,6.13A4.69,4.69,0,0,1,333.5,574.85Zm-3.71,42.67v-37h7.35v37Z" transform="translate(-4.07)"/><path d="M354.37,595.61v21.91H347v-37h7l.06,9.07h-.76a14.18,14.18,0,0,1,4.74-7.25,12.33,12.33,0,0,1,7.51-2.28,13.41,13.41,0,0,1,6.65,1.59,11,11,0,0,1,4.44,4.68,16.63,16.63,0,0,1,1.6,7.7v23.5h-7.35V594.91a8.8,8.8,0,0,0-2.1-6.25,7.52,7.52,0,0,0-5.78-2.25,9.11,9.11,0,0,0-4.44,1.07,7.72,7.72,0,0,0-3.1,3.13A10.15,10.15,0,0,0,354.37,595.61Z" transform="translate(-4.07)"/><path d="M403.76,632.15a23,23,0,0,1-7.48-1.09,15.43,15.43,0,0,1-5.23-2.91,13,13,0,0,1-3.12-4l6.15-2.88a14.68,14.68,0,0,0,1.78,2.23,9.31,9.31,0,0,0,3,2,12.39,12.39,0,0,0,4.88.82,11.18,11.18,0,0,0,6.93-2q2.65-2,2.65-6.27V610.8h-.63a17,17,0,0,1-1.85,2.65,10,10,0,0,1-3.31,2.47,12.65,12.65,0,0,1-5.53,1,15.47,15.47,0,0,1-7.93-2.05,14.46,14.46,0,0,1-5.59-6.09,21.64,21.64,0,0,1-2.07-9.93,23,23,0,0,1,2.05-10.12,15.44,15.44,0,0,1,5.61-6.47,14.71,14.71,0,0,1,8-2.25,12.09,12.09,0,0,1,5.6,1.13,10.26,10.26,0,0,1,3.37,2.66,20.26,20.26,0,0,1,1.85,2.7h.54v-6h7.18v37.54a13.47,13.47,0,0,1-2.22,8,13,13,0,0,1-6.05,4.62A23.46,23.46,0,0,1,403.76,632.15Zm0-21.25a9.32,9.32,0,0,0,5.29-1.44,8.83,8.83,0,0,0,3.26-4.17,17.44,17.44,0,0,0,1.1-6.5,18,18,0,0,0-1.1-6.56,9.76,9.76,0,0,0-3.26-4.4,9.6,9.6,0,0,0-10.7.08,10.3,10.3,0,0,0-3.28,4.5,17.57,17.57,0,0,0-1.1,6.38,17,17,0,0,0,1.1,6.34,8.76,8.76,0,0,0,8.69,5.77Z" transform="translate(-4.07)"/><path d="M449.34,617.52V568.2H457v20.85H481.6V568.2h7.65v49.32H481.6v-22H457v22Z" transform="translate(-4.07)"/><path d="M515.39,618.28a17.27,17.27,0,0,1-9.16-2.38,16.14,16.14,0,0,1-6.1-6.69,22,22,0,0,1-2.17-10,22.27,22.27,0,0,1,2.17-10.08,16.14,16.14,0,0,1,6.1-6.71,18.89,18.89,0,0,1,18.36,0,16.14,16.14,0,0,1,6.1,6.71,22.14,22.14,0,0,1,2.17,10.08,21.87,21.87,0,0,1-2.17,10,16.14,16.14,0,0,1-6.1,6.69A17.34,17.34,0,0,1,515.39,618.28Zm0-6.15a8.74,8.74,0,0,0,5.63-1.77,10.65,10.65,0,0,0,3.31-4.71,18.42,18.42,0,0,0,1.08-6.43,18.92,18.92,0,0,0-1.08-6.51A10.6,10.6,0,0,0,521,588a8.74,8.74,0,0,0-5.63-1.77,8.62,8.62,0,0,0-5.57,1.77,10.53,10.53,0,0,0-3.29,4.72,18.77,18.77,0,0,0-1.09,6.52,18.42,18.42,0,0,0,1.09,6.43,10.61,10.61,0,0,0,3.29,4.71A8.62,8.62,0,0,0,515.39,612.13Z" transform="translate(-4.07)"/><path d="M541,617.52v-37h7l.2,8.58h-.57a13,13,0,0,1,2.47-5.17,11,11,0,0,1,3.91-3,11.28,11.28,0,0,1,4.67-1,8.93,8.93,0,0,1,6.58,2.5,13.11,13.11,0,0,1,3.37,7h-.93a12.15,12.15,0,0,1,2.54-5.16,11.7,11.7,0,0,1,4.35-3.21,13.76,13.76,0,0,1,5.46-1.1,12.6,12.6,0,0,1,6,1.43,10.45,10.45,0,0,1,4.26,4.23,14.35,14.35,0,0,1,1.57,7v25h-7.35V593.29q0-3.7-2.09-5.36a7.7,7.7,0,0,0-4.92-1.66,7.87,7.87,0,0,0-4,1A6.54,6.54,0,0,0,571,589.9a8.27,8.27,0,0,0-.9,3.92v23.7h-7.25V592.83a6.2,6.2,0,0,0-1.92-4.77,6.9,6.9,0,0,0-4.89-1.79,7.87,7.87,0,0,0-3.79,1,7,7,0,0,0-2.8,2.78,9,9,0,0,0-1.06,4.52v23Z" transform="translate(-4.07)"/><path d="M617.85,618.28a18.44,18.44,0,0,1-9.52-2.35,15.59,15.59,0,0,1-6.16-6.62,21.94,21.94,0,0,1-2.16-10,22.63,22.63,0,0,1,2.12-10,16.33,16.33,0,0,1,6-6.77,16.72,16.72,0,0,1,9.08-2.43,18.65,18.65,0,0,1,6.18,1,15.23,15.23,0,0,1,5.34,3.26,15.47,15.47,0,0,1,3.76,5.75,23.49,23.49,0,0,1,1.39,8.55v2.59H604.12v-5.43h26l-3.44,1.78a15.52,15.52,0,0,0-1.07-6,8.39,8.39,0,0,0-8.38-5.51,9.28,9.28,0,0,0-5.31,1.48,9.61,9.61,0,0,0-3.35,3.93,12.21,12.21,0,0,0-1.16,5.31v3.71a14.3,14.3,0,0,0,1.32,6.44,9.17,9.17,0,0,0,3.69,4,11,11,0,0,0,5.51,1.34,11.25,11.25,0,0,0,3.74-.58A7.61,7.61,0,0,0,626.4,607l6.91,1.62a12.56,12.56,0,0,1-3,5,14.39,14.39,0,0,1-5.28,3.39A19.8,19.8,0,0,1,617.85,618.28Z" transform="translate(-4.07)"/><path d="M655.31,618.28a20.58,20.58,0,0,1-7.19-1.16,12.58,12.58,0,0,1-5.18-3.42,11.66,11.66,0,0,1-2.69-5.55l6.92-1.42A7,7,0,0,0,650,611a9.46,9.46,0,0,0,5.34,1.39,9.67,9.67,0,0,0,5.64-1.47,4.24,4.24,0,0,0,2.11-3.53,3.77,3.77,0,0,0-1.29-2.94,8.45,8.45,0,0,0-4-1.73l-6.27-1.42q-5.22-1.15-7.75-3.71a8.84,8.84,0,0,1-2.54-6.52,9.36,9.36,0,0,1,1.87-5.79,12.29,12.29,0,0,1,5.11-3.86,19.12,19.12,0,0,1,7.48-1.37,18.5,18.5,0,0,1,6.91,1.16,11.76,11.76,0,0,1,4.66,3.24,12.6,12.6,0,0,1,2.56,4.84l-6.58,1.42a8.09,8.09,0,0,0-2.44-3.43,7.61,7.61,0,0,0-5-1.47,8.93,8.93,0,0,0-5.08,1.36,4,4,0,0,0-2,3.44,3.75,3.75,0,0,0,1.35,3,10.54,10.54,0,0,0,4.42,1.83l6,1.33q5.18,1.15,7.68,3.64a8.55,8.55,0,0,1,2.51,6.35,9.65,9.65,0,0,1-2,6,12.87,12.87,0,0,1-5.41,4.07A20.37,20.37,0,0,1,655.31,618.28Z" transform="translate(-4.07)"/><path d="M713,580.51v5.93H692.71v-5.93Zm-14.79-8.8h7.34v35.81a4.73,4.73,0,0,0,1,3.27,4.06,4.06,0,0,0,3.12,1,12.63,12.63,0,0,0,1.5-.13c.62-.09,1.16-.18,1.6-.27l1.31,5.83a14.63,14.63,0,0,1-2.51.58,19.74,19.74,0,0,1-2.64.18q-5.07,0-7.88-2.6a9.46,9.46,0,0,1-2.8-7.3Z" transform="translate(-4.07)"/><path d="M735.29,618.28a17.33,17.33,0,0,1-9.17-2.38,16.19,16.19,0,0,1-6.09-6.69,21.87,21.87,0,0,1-2.17-10A22.14,22.14,0,0,1,720,589.14a16.18,16.18,0,0,1,6.09-6.71,18.91,18.91,0,0,1,18.37,0,16.14,16.14,0,0,1,6.1,6.71,22.27,22.27,0,0,1,2.17,10.08,22,22,0,0,1-2.17,10,16.14,16.14,0,0,1-6.1,6.69A17.34,17.34,0,0,1,735.29,618.28Zm0-6.15a8.76,8.76,0,0,0,5.63-1.77,10.55,10.55,0,0,0,3.3-4.71,18.19,18.19,0,0,0,1.09-6.43,18.69,18.69,0,0,0-1.09-6.51,10.51,10.51,0,0,0-3.3-4.73,8.76,8.76,0,0,0-5.63-1.77,8.63,8.63,0,0,0-5.58,1.77,10.59,10.59,0,0,0-3.28,4.72,18.54,18.54,0,0,0-1.09,6.52,18.19,18.19,0,0,0,1.09,6.43,10.67,10.67,0,0,0,3.28,4.71A8.63,8.63,0,0,0,735.29,612.13Z" transform="translate(-4.07)"/><path d="M779.7,617.52V568.2h11.22l10.86,28.3q.47,1.26,1.05,3.18c.39,1.28.79,2.67,1.22,4.17s.82,3,1.2,4.44.71,2.77,1,3.94h-1.6l1-3.83c.38-1.44.78-2.92,1.2-4.42s.84-2.91,1.24-4.23.76-2.41,1.07-3.25l10.68-28.3h11.29v49.32h-7.58V591c0-1,0-2.22,0-3.64s0-2.9.09-4.48.06-3.17.1-4.79.06-3.15.08-4.63h.57q-.67,2.42-1.45,5t-1.54,5q-.75,2.39-1.44,4.35c-.45,1.32-.84,2.4-1.15,3.26l-10.18,26.55h-6.52L791.83,591c-.34-.83-.72-1.9-1.16-3.19s-.9-2.73-1.42-4.3-1-3.23-1.56-4.94-1.07-3.41-1.61-5.11h.67c0,1.35.08,2.81.12,4.39s.06,3.17.1,4.78.06,3.14.1,4.58,0,2.71,0,3.79v26.55Z" transform="translate(-4.07)"/><path d="M852,618.35a15.3,15.3,0,0,1-6.41-1.31,10.55,10.55,0,0,1-4.54-3.82,10.92,10.92,0,0,1-1.67-6.16,9.85,9.85,0,0,1,1.22-5.16,8.92,8.92,0,0,1,3.3-3.21,17,17,0,0,1,4.65-1.79,42.61,42.61,0,0,1,5.19-.89l5.37-.65a8.19,8.19,0,0,0,3.06-.83,2,2,0,0,0,1-1.87v-.2a6.94,6.94,0,0,0-.81-3.5,5.38,5.38,0,0,0-2.38-2.21,9.1,9.1,0,0,0-4-.77,10.61,10.61,0,0,0-4.19.74,8.27,8.27,0,0,0-2.84,1.9,8.55,8.55,0,0,0-1.62,2.42l-6.91-1.79a12.93,12.93,0,0,1,3.64-5.33,15,15,0,0,1,5.44-2.94,21.78,21.78,0,0,1,6.35-.93,23.73,23.73,0,0,1,4.8.53,14.46,14.46,0,0,1,4.78,1.92,10.58,10.58,0,0,1,3.64,3.91,13.43,13.43,0,0,1,1.4,6.55v24.56h-7.11v-5.06H863a10.54,10.54,0,0,1-2.17,2.78,11.35,11.35,0,0,1-3.62,2.23A13.93,13.93,0,0,1,852,618.35Zm1.64-5.86a10.66,10.66,0,0,0,5.14-1.16,8.18,8.18,0,0,0,3.27-3.08,7.83,7.83,0,0,0,1.14-4.07v-4.73a3.7,3.7,0,0,1-1.52.71,24.37,24.37,0,0,1-2.56.56c-1,.17-1.88.31-2.77.42l-2.2.26a18.3,18.3,0,0,0-3.79.89,6.58,6.58,0,0,0-2.74,1.79,4.49,4.49,0,0,0-1,3.08,4.72,4.72,0,0,0,.92,3,5.48,5.48,0,0,0,2.49,1.78A10.14,10.14,0,0,0,853.64,612.49Z" transform="translate(-4.07)"/><path d="M880.39,617.52V568.2h7.34v49.32ZM887.17,605v-8.9h1.23l14.73-15.63h8.81l-16.86,17.91h-1.24Zm16.73,12.48L890.64,600l5.07-5.16L913,617.52Z" transform="translate(-4.07)"/><path d="M922.33,574.85a4.58,4.58,0,0,1-3.26-1.27,4.13,4.13,0,0,1,0-6.11,4.86,4.86,0,0,1,6.53,0,4.11,4.11,0,0,1,0,6.13A4.69,4.69,0,0,1,922.33,574.85Zm-3.71,42.67v-37H926v37Z" transform="translate(-4.07)"/><path d="M943.2,595.61v21.91h-7.35v-37h7l.06,9.07h-.77a14.13,14.13,0,0,1,4.75-7.25,12.33,12.33,0,0,1,7.51-2.28,13.34,13.34,0,0,1,6.64,1.59,11,11,0,0,1,4.45,4.68,16.76,16.76,0,0,1,1.6,7.7v23.5h-7.35V594.91a8.8,8.8,0,0,0-2.1-6.25,7.52,7.52,0,0,0-5.78-2.25,9.06,9.06,0,0,0-4.44,1.07,7.81,7.81,0,0,0-3.11,3.13A10.26,10.26,0,0,0,943.2,595.61Z" transform="translate(-4.07)"/><path d="M992.59,632.15a23,23,0,0,1-7.48-1.09,15.33,15.33,0,0,1-5.23-2.91,12.87,12.87,0,0,1-3.12-4l6.14-2.88a14.79,14.79,0,0,0,1.79,2.23,9.2,9.2,0,0,0,3,2,12.39,12.39,0,0,0,4.88.82,11.18,11.18,0,0,0,6.93-2q2.65-2,2.65-6.27V610.8h-.63a17.12,17.12,0,0,1-1.86,2.65,10,10,0,0,1-3.3,2.47,12.68,12.68,0,0,1-5.53,1,15.44,15.44,0,0,1-7.93-2.05,14.46,14.46,0,0,1-5.59-6.09,21.64,21.64,0,0,1-2.07-9.93,23,23,0,0,1,2-10.12,15.44,15.44,0,0,1,5.61-6.47,14.71,14.71,0,0,1,8-2.25,12,12,0,0,1,5.59,1.13,10.3,10.3,0,0,1,3.38,2.66,20.26,20.26,0,0,1,1.85,2.7h.54v-6h7.18v37.54a13.48,13.48,0,0,1-2.23,8,12.93,12.93,0,0,1-6,4.62A23.49,23.49,0,0,1,992.59,632.15Zm0-21.25a9.33,9.33,0,0,0,5.3-1.44,8.81,8.81,0,0,0,3.25-4.17,17.23,17.23,0,0,0,1.11-6.5,17.82,17.82,0,0,0-1.11-6.56,9.74,9.74,0,0,0-3.25-4.4,9.61,9.61,0,0,0-10.71.08,10.36,10.36,0,0,0-3.27,4.5,17.57,17.57,0,0,0-1.1,6.38,17,17,0,0,0,1.1,6.34,8.76,8.76,0,0,0,8.68,5.77Z" transform="translate(-4.07)"/><path d="M1035.67,574.69V568.2h38.63v6.49h-15.46v42.83h-7.65V574.69Z" transform="translate(-4.07)"/><path d="M1089.6,595.61v21.91h-7.35V568.2h7.28v21.38h-1a14.18,14.18,0,0,1,4.74-7.25,12.36,12.36,0,0,1,7.52-2.28,13.47,13.47,0,0,1,6.66,1.59,10.93,10.93,0,0,1,4.44,4.68,16.76,16.76,0,0,1,1.59,7.7v23.5h-7.35V594.91a8.8,8.8,0,0,0-2.1-6.25,7.54,7.54,0,0,0-5.78-2.25,9.06,9.06,0,0,0-4.44,1.07,7.75,7.75,0,0,0-3.11,3.13A10.15,10.15,0,0,0,1089.6,595.61Z" transform="translate(-4.07)"/><path d="M1139.49,618.28a18.44,18.44,0,0,1-9.52-2.35,15.59,15.59,0,0,1-6.16-6.62,21.94,21.94,0,0,1-2.16-10,22.63,22.63,0,0,1,2.12-10,16.33,16.33,0,0,1,6-6.77,16.72,16.72,0,0,1,9.08-2.43,18.65,18.65,0,0,1,6.18,1,15.23,15.23,0,0,1,5.34,3.26,15.47,15.47,0,0,1,3.76,5.75,23.5,23.5,0,0,1,1.38,8.55v2.59h-29.75v-5.43h26l-3.44,1.78a15.52,15.52,0,0,0-1.07-6,8.39,8.39,0,0,0-8.38-5.51,9.28,9.28,0,0,0-5.31,1.48,9.61,9.61,0,0,0-3.35,3.93,12.21,12.21,0,0,0-1.16,5.31v3.71a14.3,14.3,0,0,0,1.32,6.44,9.17,9.17,0,0,0,3.69,4,11,11,0,0,0,5.51,1.34,11.25,11.25,0,0,0,3.74-.58A7.61,7.61,0,0,0,1148,607l6.91,1.62a12.47,12.47,0,0,1-3,5,14.26,14.26,0,0,1-5.27,3.39A19.84,19.84,0,0,1,1139.49,618.28Z" transform="translate(-4.07)"/><path d="M1163.56,617.52v-37h7l.2,8.58h-.57a13.05,13.05,0,0,1,2.48-5.17,10.92,10.92,0,0,1,3.9-3,11.29,11.29,0,0,1,4.68-1,8.94,8.94,0,0,1,6.58,2.5,13.11,13.11,0,0,1,3.37,7h-.93a12.13,12.13,0,0,1,2.53-5.16,11.74,11.74,0,0,1,4.36-3.21,13.69,13.69,0,0,1,5.46-1.1,12.59,12.59,0,0,1,6,1.43,10.33,10.33,0,0,1,4.26,4.23,14.24,14.24,0,0,1,1.57,7v25h-7.34V593.29q0-3.7-2.09-5.36a7.73,7.73,0,0,0-4.93-1.66,7.83,7.83,0,0,0-4,1,6.54,6.54,0,0,0-2.57,2.67,8.27,8.27,0,0,0-.9,3.92v23.7h-7.25V592.83a6.2,6.2,0,0,0-1.92-4.77,6.9,6.9,0,0,0-4.89-1.79,7.87,7.87,0,0,0-3.79,1A7,7,0,0,0,1172,590a9,9,0,0,0-1,4.52v23Z" transform="translate(-4.07)"/><path d="M1257.63,617.52V597.89L1239.3,568.2h8.88l9.35,15.72q1.58,2.58,2.76,5a57.94,57.94,0,0,1,2.45,5.89h-2.44a57.12,57.12,0,0,1,2.46-6q1.18-2.4,2.65-4.89l9.25-15.72h8.85l-18.26,29.69v19.63Z" transform="translate(-4.07)"/><path d="M1300.61,618.28a17.31,17.31,0,0,1-9.17-2.38,16.19,16.19,0,0,1-6.09-6.69,21.87,21.87,0,0,1-2.17-10,22.14,22.14,0,0,1,2.17-10.08,16.18,16.18,0,0,1,6.09-6.71,18.91,18.91,0,0,1,18.37,0,16,16,0,0,1,6.09,6.71,22.14,22.14,0,0,1,2.17,10.08,21.87,21.87,0,0,1-2.17,10,16.05,16.05,0,0,1-6.09,6.69A17.37,17.37,0,0,1,1300.61,618.28Zm0-6.15a8.76,8.76,0,0,0,5.63-1.77,10.55,10.55,0,0,0,3.3-4.71,18.19,18.19,0,0,0,1.09-6.43,18.69,18.69,0,0,0-1.09-6.51,10.51,10.51,0,0,0-3.3-4.73,8.76,8.76,0,0,0-5.63-1.77A8.63,8.63,0,0,0,1295,588a10.61,10.61,0,0,0-3.29,4.72,18.78,18.78,0,0,0-1.08,6.52,18.42,18.42,0,0,0,1.08,6.43,10.69,10.69,0,0,0,3.29,4.71A8.63,8.63,0,0,0,1300.61,612.13Z" transform="translate(-4.07)"/><path d="M1339,618a13.55,13.55,0,0,1-6.68-1.59,10.85,10.85,0,0,1-4.46-4.7,16.79,16.79,0,0,1-1.59-7.68V580.51h7.35v22.61a8.79,8.79,0,0,0,2.12,6.26,7.52,7.52,0,0,0,5.76,2.25,9.06,9.06,0,0,0,4.46-1.08,7.73,7.73,0,0,0,3.09-3.14,10.29,10.29,0,0,0,1.13-5V580.51h7.35v37h-7l0-9.07h.7q-1.64,5-4.77,7.28A12.33,12.33,0,0,1,1339,618Z" transform="translate(-4.07)"/><path d="M1367.36,617.52v-37h7.12v6h.4a9,9,0,0,1,3.6-4.76,10.27,10.27,0,0,1,5.85-1.73c.46,0,1,0,1.6,0s1.1.09,1.5.15v7a10.52,10.52,0,0,0-1.53-.26,19.63,19.63,0,0,0-2.31-.13,9.71,9.71,0,0,0-4.57,1.06,7.84,7.84,0,0,0-3.18,2.93,8.19,8.19,0,0,0-1.13,4.32v22.47Z" transform="translate(-4.07)"/><path d="M1407.2,618.28a20.58,20.58,0,0,1-7.19-1.16,12.58,12.58,0,0,1-5.18-3.42,11.66,11.66,0,0,1-2.69-5.55l6.91-1.42a7.08,7.08,0,0,0,2.88,4.27,9.46,9.46,0,0,0,5.34,1.39,9.67,9.67,0,0,0,5.64-1.47,4.24,4.24,0,0,0,2.11-3.53,3.77,3.77,0,0,0-1.29-2.94,8.49,8.49,0,0,0-4-1.73l-6.27-1.42q-5.22-1.15-7.75-3.71a8.84,8.84,0,0,1-2.54-6.52,9.36,9.36,0,0,1,1.87-5.79,12.29,12.29,0,0,1,5.11-3.86,19.12,19.12,0,0,1,7.48-1.37,18.5,18.5,0,0,1,6.91,1.16,11.76,11.76,0,0,1,4.66,3.24,12.45,12.45,0,0,1,2.55,4.84l-6.57,1.42a8.09,8.09,0,0,0-2.44-3.43,7.61,7.61,0,0,0-5-1.47,8.93,8.93,0,0,0-5.08,1.36,4,4,0,0,0-2,3.44,3.73,3.73,0,0,0,1.36,3,10.54,10.54,0,0,0,4.42,1.83l6,1.33q5.17,1.15,7.68,3.64a8.55,8.55,0,0,1,2.51,6.35,9.65,9.65,0,0,1-2,6,12.87,12.87,0,0,1-5.41,4.07A20.37,20.37,0,0,1,1407.2,618.28Z" transform="translate(-4.07)"/><rect class="cls-9" x="471.86" y="480.73" width="949.16" height="30" rx="12.99"/></g></g></svg>