<svg xmlns="http://www.w3.org/2000/svg" xmlns:xlink="http://www.w3.org/1999/xlink" viewBox="0 0 1421.63 632.15"><defs><style>.cls-1{fill:url(#linear-gradient);}.cls-2{fill:url(#linear-gradient-2);}.cls-3{fill:url(#linear-gradient-3);}.cls-4{fill:url(#linear-gradient-4);}.cls-5{fill:url(#linear-gradient-5);}.cls-6{fill:url(#linear-gradient-6);}.cls-7{fill:url(#linear-gradient-7);}.cls-8{fill:url(#linear-gradient-8);}.cls-9{fill:#fff;}.cls-10{fill:#38bdf8;}</style><linearGradient id="linear-gradient" x1="4.07" y1="255.36" x2="440.51" y2="255.36" gradientUnits="userSpaceOnUse"><stop offset="0" stop-color="#304ffe"/><stop offset="0.22" stop-color="#2f52fe"/><stop offset="0.4" stop-color="#2b5cfe"/><stop offset="0.57" stop-color="#246dfe"/><stop offset="0.72" stop-color="#1a85fe"/><stop offset="0.87" stop-color="#0ea3ff"/><stop offset="1" stop-color="#00c6ff"/></linearGradient><linearGradient id="linear-gradient-2" x1="121.17" y1="213.1" x2="314.62" y2="406.54" xlink:href="#linear-gradient"/><linearGradient id="linear-gradient-3" x1="492.29" y1="277.64" x2="616.31" y2="401.65" xlink:href="#linear-gradient"/><linearGradient id="linear-gradient-4" x1="664.18" y1="272.7" x2="769.28" y2="377.81" xlink:href="#linear-gradient"/><linearGradient id="linear-gradient-5" x1="809.2" y1="272.7" x2="914.31" y2="377.81" xlink:href="#linear-gradient"/><linearGradient id="linear-gradient-6" x1="932.1" y1="245.72" x2="1060.81" y2="374.43" xlink:href="#linear-gradient"/><linearGradient id="linear-gradient-7" x1="1077.5" y1="276.96" x2="1200.79" y2="400.26" xlink:href="#linear-gradient"/><linearGradient id="linear-gradient-8" x1="1271.72" y1="277.64" x2="1395.74" y2="401.65" xlink:href="#linear-gradient"/></defs><g id="Layer_2" data-name="Layer 2"><g id="Layer_1-2" data-name="Layer 1"><path class="cls-1" d="M440.51,213c.05-11.53-3.67-19.76-11.91-27.56Q337.8,99.51,247.52,13.08c-17.82-17-28-17.61-46-.8Q108.69,98.86,16.23,185.85C7.71,193.82,4,203.06,4.07,215c.35,86.41.21,172.81.24,259.22,0,26,10.53,36.52,36.62,36.52q90.14,0,180.27,0,90.8,0,181.58,0c27,0,37.47-10.42,37.48-37.19C440.29,386.65,440.11,299.81,440.51,213ZM380.59,442.17c0,.82-.46,1.64-1,3.6H63.08c-.27-3.42-.89-7.56-.88-11.7.22-69.31.42-138.62,1-207.92,0-5.09,1.82-11.73,5.3-15C120,162.82,171.86,114.92,224.77,65.86c23.51,22.22,46.46,43.79,69.27,65.51,26.69,25.41,53.37,50.82,79.72,76.57,3.38,3.31,6.72,8.68,6.74,13.11C380.86,294.76,380.68,368.46,380.59,442.17Z" transform="translate(-4.07)"/><path class="cls-2" d="M102.55,427.13l5.83-35.27,135.42-148H133.26l8.5-51.34H333.24l-5.83,35.28L192,375.8H302.53L294,427.13Z" transform="translate(-4.07)"/><path class="cls-3" d="M542.66,430.28q-26,0-43.93-9.29a63.56,63.56,0,0,1-27.24-26.14q-9.3-16.85-9.29-39.36a118.58,118.58,0,0,1,6.93-40.63,103,103,0,0,1,20.23-34.09A93.86,93.86,0,0,1,522,257.39q19.29-8.5,44.17-8.5,25.82,0,43.7,9.29A63.75,63.75,0,0,1,637,284.32q9.28,16.85,9.29,39.36a121,121,0,0,1-6.77,40.47,101.66,101.66,0,0,1-20,34.09A94,94,0,0,1,587,421.7Q567.69,430.28,542.66,430.28ZM545.18,383A25.41,25.41,0,0,0,563,376.43a47.74,47.74,0,0,0,11.57-16.61,91.81,91.81,0,0,0,6.22-20.63,106.63,106.63,0,0,0,1.89-18.5,34.16,34.16,0,0,0-2.36-13.62,18,18,0,0,0-6.61-8.19,18.2,18.2,0,0,0-10.08-2.75q-10.71,0-18,6.45a46.23,46.23,0,0,0-11.65,16.3,89.75,89.75,0,0,0-6.22,20.31,105.65,105.65,0,0,0-1.89,18.5q0,12.29,5.27,18.82A17.19,17.19,0,0,0,545.18,383Z" transform="translate(-4.07)"/><path class="cls-4" d="M656.66,427.13l29.13-176H747.2l-5.51,33.7h1.89q7.88-18.74,19.68-27.32a43,43,0,0,1,25.83-8.58,52.27,52.27,0,0,1,8.11.63,43.88,43.88,0,0,1,7.63,1.89l-9,53.85a43.1,43.1,0,0,0-11.18-2.44,115.15,115.15,0,0,0-11.65-.71,37,37,0,0,0-17.32,4.17,38.25,38.25,0,0,0-13.47,11.65,41.29,41.29,0,0,0-7.16,17.56L720,427.13Z" transform="translate(-4.07)"/><path class="cls-5" d="M801.68,427.13l29.13-176h61.41l-5.51,33.7h1.89q7.88-18.74,19.68-27.32a43,43,0,0,1,25.83-8.58,52.27,52.27,0,0,1,8.11.63,43.88,43.88,0,0,1,7.63,1.89l-9,53.85a43.1,43.1,0,0,0-11.18-2.44,115.15,115.15,0,0,0-11.65-.71,37,37,0,0,0-17.32,4.17,38.25,38.25,0,0,0-13.47,11.65,41.29,41.29,0,0,0-7.16,17.56L865,427.13Z" transform="translate(-4.07)"/><path class="cls-6" d="M944.82,427.13l29.12-176h63.3l-29.13,176Zm63.61-194q-12.91,0-20.63-8.5T982,204.17q2-12.12,12.59-20.55a36.69,36.69,0,0,1,23.47-8.43q12.9,0,20.62,8.43t5.67,20.55q-1.89,12-12.44,20.47A36.46,36.46,0,0,1,1008.43,233.14Z" transform="translate(-4.07)"/><path class="cls-7" d="M1127.78,430.28q-25.18,0-43.14-9.45a65.75,65.75,0,0,1-27.48-26.45q-9.53-17-9.52-39.84a121.65,121.65,0,0,1,6.3-38.73,101.47,101.47,0,0,1,19.13-34,91.49,91.49,0,0,1,32.36-24q19.52-8.89,45.82-8.89a105.43,105.43,0,0,1,32.75,4.72,71.18,71.18,0,0,1,24.64,13.46,54.06,54.06,0,0,1,15.12,21.1,63.11,63.11,0,0,1,4,27.64l-59.67,8.66a93,93,0,0,0-.71-12.2,27.11,27.11,0,0,0-2.6-8.9,12.49,12.49,0,0,0-5.28-5.43,18,18,0,0,0-8.58-1.81q-11,0-18.66,6.06a43.33,43.33,0,0,0-12.2,15.67,83.52,83.52,0,0,0-6.61,20.15,102.54,102.54,0,0,0-2,19.53,43.63,43.63,0,0,0,2,14.09,16.36,16.36,0,0,0,6.14,8.58A18.21,18.21,0,0,0,1130,383a28.93,28.93,0,0,0,10.23-1.89,32.24,32.24,0,0,0,9.45-5.59,40.1,40.1,0,0,0,7.95-9.21,51.07,51.07,0,0,0,5.75-12.59l56.69,8.5a100.6,100.6,0,0,1-12.28,28.26A82.76,82.76,0,0,1,1188,411.94a87,87,0,0,1-26.84,13.62A111.56,111.56,0,0,1,1127.78,430.28Z" transform="translate(-4.07)"/><path class="cls-8" d="M1322.09,430.28q-26,0-43.93-9.29a63.56,63.56,0,0,1-27.24-26.14q-9.29-16.85-9.29-39.36a118.82,118.82,0,0,1,6.93-40.63,103.17,103.17,0,0,1,20.23-34.09,93.89,93.89,0,0,1,32.6-23.38q19.27-8.5,44.16-8.5,25.83,0,43.7,9.29a63.7,63.7,0,0,1,27.16,26.14q9.28,16.85,9.29,39.36a121,121,0,0,1-6.77,40.47,101.66,101.66,0,0,1-20,34.09,94,94,0,0,1-32.51,23.46Q1347.13,430.28,1322.09,430.28Zm2.52-47.24a25.41,25.41,0,0,0,17.79-6.61A47.89,47.89,0,0,0,1354,359.82a92.86,92.86,0,0,0,6.22-20.63,107.62,107.62,0,0,0,1.89-18.5,34.34,34.34,0,0,0-2.36-13.62,17.07,17.07,0,0,0-16.7-10.94,26.31,26.31,0,0,0-18,6.45,46.23,46.23,0,0,0-11.65,16.3,89.75,89.75,0,0,0-6.22,20.31,105.65,105.65,0,0,0-1.89,18.5q0,12.29,5.28,18.82A17.16,17.16,0,0,0,1324.61,383Z" transform="translate(-4.07)"/><path class="cls-9" d="M5.51,617.52V568.2h31v6.49H13.12v15.85H34.23V597H13.12v20.52Z" transform="translate(-4.07)"/><path class="cls-9" d="M43.25,617.52v-37h7.11v6h.4a9,9,0,0,1,3.61-4.76A10.23,10.23,0,0,1,60.21,580c.47,0,1,0,1.6,0s1.1.09,1.5.15v7a10.26,10.26,0,0,0-1.53-.26,19.63,19.63,0,0,0-2.31-.13,9.71,9.71,0,0,0-4.57,1.06,7.75,7.75,0,0,0-3.17,2.93,8.1,8.1,0,0,0-1.14,4.32v22.47Z" transform="translate(-4.07)"/><path class="cls-9" d="M84.25,618.28a17.27,17.27,0,0,1-9.16-2.38,16.14,16.14,0,0,1-6.1-6.69,21.87,21.87,0,0,1-2.17-10A22.14,22.14,0,0,1,69,589.14a16.14,16.14,0,0,1,6.1-6.71,18.89,18.89,0,0,1,18.36,0,16.14,16.14,0,0,1,6.1,6.71,22.27,22.27,0,0,1,2.17,10.08,22,22,0,0,1-2.17,10,16.14,16.14,0,0,1-6.1,6.69A17.34,17.34,0,0,1,84.25,618.28Zm0-6.15a8.76,8.76,0,0,0,5.63-1.77,10.65,10.65,0,0,0,3.31-4.71,18.42,18.42,0,0,0,1.08-6.43,18.92,18.92,0,0,0-1.08-6.51A10.6,10.6,0,0,0,89.88,588a8.76,8.76,0,0,0-5.63-1.77A8.6,8.6,0,0,0,78.68,588a10.53,10.53,0,0,0-3.29,4.72,18.54,18.54,0,0,0-1.09,6.52,18.19,18.19,0,0,0,1.09,6.43,10.61,10.61,0,0,0,3.29,4.71A8.6,8.6,0,0,0,84.25,612.13Z" transform="translate(-4.07)"/><path class="cls-9" d="M109.87,617.52v-37h7l.2,8.58h-.56a12.91,12.91,0,0,1,2.47-5.17,10.86,10.86,0,0,1,3.91-3,11.28,11.28,0,0,1,4.67-1,8.93,8.93,0,0,1,6.58,2.5,13.11,13.11,0,0,1,3.37,7h-.93a12.25,12.25,0,0,1,2.53-5.16,11.82,11.82,0,0,1,4.36-3.21,13.76,13.76,0,0,1,5.46-1.1,12.63,12.63,0,0,1,6,1.43,10.37,10.37,0,0,1,4.25,4.23,14.24,14.24,0,0,1,1.57,7v25h-7.34V593.29q0-3.7-2.09-5.36a7.71,7.71,0,0,0-4.93-1.66,7.83,7.83,0,0,0-4,1,6.54,6.54,0,0,0-2.57,2.67,8.27,8.27,0,0,0-.9,3.92v23.7h-7.25V592.83a6.2,6.2,0,0,0-1.92-4.77,6.9,6.9,0,0,0-4.89-1.79,7.87,7.87,0,0,0-3.79,1,7,7,0,0,0-2.81,2.78,9,9,0,0,0-1.05,4.52v23Z" transform="translate(-4.07)"/><path class="cls-9" d="M189.41,617.52V568.2h31v6.49H197v15.85h21.11V597H197v20.52Z" transform="translate(-4.07)"/><path class="cls-9" d="M232.85,574.85a4.55,4.55,0,0,1-3.25-1.27,4.13,4.13,0,0,1,0-6.11,4.59,4.59,0,0,1,3.25-1.26,4.69,4.69,0,0,1,3.28,1.26,4.11,4.11,0,0,1,0,6.13A4.73,4.73,0,0,1,232.85,574.85Zm-3.7,42.67v-37h7.34v37Z" transform="translate(-4.07)"/><path class="cls-9" d="M253.72,595.61v21.91h-7.34v-37h7l.07,9.07h-.77a14.18,14.18,0,0,1,4.74-7.25,12.35,12.35,0,0,1,7.51-2.28,13.38,13.38,0,0,1,6.65,1.59,11,11,0,0,1,4.44,4.68,16.63,16.63,0,0,1,1.6,7.7v23.5h-7.34V594.91a8.76,8.76,0,0,0-2.11-6.25,7.5,7.5,0,0,0-5.77-2.25,9.06,9.06,0,0,0-4.44,1.07,7.75,7.75,0,0,0-3.11,3.13A10.15,10.15,0,0,0,253.72,595.61Z" transform="translate(-4.07)"/><path class="cls-9" d="M301.41,618.25a14.52,14.52,0,0,1-8.08-2.3,15.32,15.32,0,0,1-5.54-6.59,27.06,27.06,0,0,1,0-20.54,15.34,15.34,0,0,1,5.58-6.52,14.59,14.59,0,0,1,8-2.25,11.78,11.78,0,0,1,5.59,1.14,10.47,10.47,0,0,1,3.33,2.67,19.52,19.52,0,0,1,1.83,2.68h.4V568.2h7.35v49.32h-7.15v-5.79h-.6a16.89,16.89,0,0,1-1.87,2.71,10.77,10.77,0,0,1-3.37,2.67A11.65,11.65,0,0,1,301.41,618.25Zm1.6-6.19a8.41,8.41,0,0,0,5.3-1.66,10.26,10.26,0,0,0,3.27-4.58,19,19,0,0,0,1.12-6.77,18.63,18.63,0,0,0-1.11-6.74,9.74,9.74,0,0,0-3.25-4.46,8.68,8.68,0,0,0-5.33-1.61,8.45,8.45,0,0,0-5.39,1.69,10.13,10.13,0,0,0-3.24,4.58,20.41,20.41,0,0,0,0,13.16,10.41,10.41,0,0,0,3.27,4.67A8.32,8.32,0,0,0,303,612.06Z" transform="translate(-4.07)"/><path class="cls-9" d="M333.5,574.85a4.55,4.55,0,0,1-3.25-1.27,4.11,4.11,0,0,1,0-6.11,4.59,4.59,0,0,1,3.25-1.26,4.65,4.65,0,0,1,3.27,1.26,4.11,4.11,0,0,1,0,6.13A4.69,4.69,0,0,1,333.5,574.85Zm-3.71,42.67v-37h7.35v37Z" transform="translate(-4.07)"/><path class="cls-9" d="M354.37,595.61v21.91H347v-37h7l.07,9.07h-.77a14.18,14.18,0,0,1,4.74-7.25,12.33,12.33,0,0,1,7.51-2.28,13.38,13.38,0,0,1,6.65,1.59,11,11,0,0,1,4.44,4.68,16.63,16.63,0,0,1,1.6,7.7v23.5h-7.34V594.91a8.8,8.8,0,0,0-2.11-6.25,7.52,7.52,0,0,0-5.78-2.25,9.11,9.11,0,0,0-4.44,1.07,7.72,7.72,0,0,0-3.1,3.13A10.15,10.15,0,0,0,354.37,595.61Z" transform="translate(-4.07)"/><path class="cls-9" d="M403.76,632.15a23,23,0,0,1-7.48-1.09,15.28,15.28,0,0,1-5.22-2.91,13.05,13.05,0,0,1-3.13-4l6.15-2.88a14.68,14.68,0,0,0,1.78,2.23,9.25,9.25,0,0,0,3,2,12.33,12.33,0,0,0,4.87.82,11.18,11.18,0,0,0,6.93-2q2.65-2,2.66-6.27V610.8h-.64a16.34,16.34,0,0,1-1.85,2.65,10,10,0,0,1-3.31,2.47,12.61,12.61,0,0,1-5.52,1,15.48,15.48,0,0,1-7.94-2.05,14.53,14.53,0,0,1-5.59-6.09,21.64,21.64,0,0,1-2.07-9.93,23.09,23.09,0,0,1,2.05-10.12,15.44,15.44,0,0,1,5.61-6.47,14.71,14.71,0,0,1,8-2.25,12.09,12.09,0,0,1,5.6,1.13,10.26,10.26,0,0,1,3.37,2.66,21.48,21.48,0,0,1,1.86,2.7h.53v-6h7.18v37.54a13.47,13.47,0,0,1-2.22,8,13,13,0,0,1-6.05,4.62A23.46,23.46,0,0,1,403.76,632.15Zm0-21.25a9.32,9.32,0,0,0,5.29-1.44,8.83,8.83,0,0,0,3.26-4.17,17.44,17.44,0,0,0,1.1-6.5,18,18,0,0,0-1.1-6.56,9.76,9.76,0,0,0-3.26-4.4,9.6,9.6,0,0,0-10.7.08,10.21,10.21,0,0,0-3.27,4.5,17.35,17.35,0,0,0-1.11,6.38,16.81,16.81,0,0,0,1.11,6.34,8.74,8.74,0,0,0,8.68,5.77Z" transform="translate(-4.07)"/><path class="cls-9" d="M449.34,617.52V568.2H457v20.85H481.6V568.2h7.65v49.32H481.6v-22H457v22Z" transform="translate(-4.07)"/><path class="cls-9" d="M515.4,618.28a17.28,17.28,0,0,1-9.17-2.38,16.14,16.14,0,0,1-6.1-6.69,22,22,0,0,1-2.17-10,22.27,22.27,0,0,1,2.17-10.08,16.14,16.14,0,0,1,6.1-6.71,18.91,18.91,0,0,1,18.37,0,16.18,16.18,0,0,1,6.09,6.71,22.14,22.14,0,0,1,2.17,10.08,21.87,21.87,0,0,1-2.17,10,16.19,16.19,0,0,1-6.09,6.69A17.39,17.39,0,0,1,515.4,618.28Zm0-6.15a8.73,8.73,0,0,0,5.62-1.77,10.57,10.57,0,0,0,3.31-4.71,18.42,18.42,0,0,0,1.08-6.43,18.92,18.92,0,0,0-1.08-6.51A10.52,10.52,0,0,0,521,588a8.73,8.73,0,0,0-5.62-1.77,8.63,8.63,0,0,0-5.58,1.77,10.53,10.53,0,0,0-3.29,4.72,18.77,18.77,0,0,0-1.09,6.52,18.42,18.42,0,0,0,1.09,6.43,10.61,10.61,0,0,0,3.29,4.71A8.63,8.63,0,0,0,515.4,612.13Z" transform="translate(-4.07)"/><path class="cls-9" d="M541,617.52v-37h7l.2,8.58h-.57a13.18,13.18,0,0,1,2.47-5.17,11,11,0,0,1,3.91-3,11.28,11.28,0,0,1,4.67-1,8.93,8.93,0,0,1,6.58,2.5,13,13,0,0,1,3.37,7h-.93a12.26,12.26,0,0,1,2.54-5.16,11.66,11.66,0,0,1,4.36-3.21,13.69,13.69,0,0,1,5.46-1.1,12.59,12.59,0,0,1,6,1.43,10.45,10.45,0,0,1,4.26,4.23,14.35,14.35,0,0,1,1.57,7v25h-7.35V593.29q0-3.7-2.09-5.36a7.7,7.7,0,0,0-4.92-1.66,7.87,7.87,0,0,0-4,1A6.54,6.54,0,0,0,571,589.9a8.27,8.27,0,0,0-.9,3.92v23.7h-7.25V592.83a6.2,6.2,0,0,0-1.92-4.77,6.9,6.9,0,0,0-4.89-1.79,7.87,7.87,0,0,0-3.79,1,7,7,0,0,0-2.8,2.78,9,9,0,0,0-1,4.52v23Z" transform="translate(-4.07)"/><path class="cls-9" d="M617.85,618.28a18.44,18.44,0,0,1-9.52-2.35,15.65,15.65,0,0,1-6.16-6.62,21.93,21.93,0,0,1-2.15-10,22.49,22.49,0,0,1,2.12-10,16.24,16.24,0,0,1,6-6.77,16.72,16.72,0,0,1,9.08-2.43,18.65,18.65,0,0,1,6.18,1,15.23,15.23,0,0,1,5.34,3.26,15.47,15.47,0,0,1,3.76,5.75,23.49,23.49,0,0,1,1.39,8.55v2.59H604.12v-5.43h26l-3.44,1.78a15.52,15.52,0,0,0-1.07-6,8.39,8.39,0,0,0-8.38-5.51,9.28,9.28,0,0,0-5.31,1.48,9.68,9.68,0,0,0-3.35,3.93,12.21,12.21,0,0,0-1.15,5.31v3.71a14.3,14.3,0,0,0,1.31,6.44,9.17,9.17,0,0,0,3.69,4,11,11,0,0,0,5.51,1.34,11.25,11.25,0,0,0,3.74-.58,7.68,7.68,0,0,0,2.89-1.76A7.55,7.55,0,0,0,626.4,607l6.91,1.62a12.56,12.56,0,0,1-3,5,14.39,14.39,0,0,1-5.28,3.39A19.8,19.8,0,0,1,617.85,618.28Z" transform="translate(-4.07)"/><path class="cls-9" d="M655.32,618.28a20.6,20.6,0,0,1-7.2-1.16,12.64,12.64,0,0,1-5.18-3.42,11.75,11.75,0,0,1-2.69-5.55l6.92-1.42A7.06,7.06,0,0,0,650,611a9.46,9.46,0,0,0,5.34,1.39,9.72,9.72,0,0,0,5.65-1.47,4.26,4.26,0,0,0,2.1-3.53,3.77,3.77,0,0,0-1.29-2.94,8.4,8.4,0,0,0-4-1.73l-6.28-1.42c-3.47-.77-6.06-2-7.75-3.71a8.84,8.84,0,0,1-2.54-6.52,9.42,9.42,0,0,1,1.87-5.79,12.29,12.29,0,0,1,5.11-3.86,19.16,19.16,0,0,1,7.48-1.37,18.55,18.55,0,0,1,6.92,1.16,11.8,11.8,0,0,1,4.65,3.24,12.47,12.47,0,0,1,2.56,4.84l-6.58,1.42a8.09,8.09,0,0,0-2.44-3.43,7.61,7.61,0,0,0-5-1.47,8.93,8.93,0,0,0-5.08,1.36,4,4,0,0,0-2,3.44,3.75,3.75,0,0,0,1.35,3,10.6,10.6,0,0,0,4.42,1.83l6,1.33q5.19,1.15,7.69,3.64a8.54,8.54,0,0,1,2.5,6.35,9.7,9.7,0,0,1-2,6,13,13,0,0,1-5.41,4.07A20.4,20.4,0,0,1,655.32,618.28Z" transform="translate(-4.07)"/><path class="cls-9" d="M713,580.51v5.93H692.72v-5.93Zm-14.79-8.8h7.35v35.81a4.73,4.73,0,0,0,1,3.27,4.06,4.06,0,0,0,3.12,1,12.63,12.63,0,0,0,1.5-.13c.63-.09,1.16-.18,1.61-.27l1.3,5.83a14.63,14.63,0,0,1-2.51.58,19.74,19.74,0,0,1-2.64.18q-5.07,0-7.88-2.6a9.46,9.46,0,0,1-2.8-7.3Z" transform="translate(-4.07)"/><path class="cls-9" d="M735.29,618.28a17.27,17.27,0,0,1-9.16-2.38,16.14,16.14,0,0,1-6.1-6.69,21.87,21.87,0,0,1-2.17-10A22.14,22.14,0,0,1,720,589.14a16.14,16.14,0,0,1,6.1-6.71,18.89,18.89,0,0,1,18.36,0,16.14,16.14,0,0,1,6.1,6.71,22.27,22.27,0,0,1,2.17,10.08,22,22,0,0,1-2.17,10,16.14,16.14,0,0,1-6.1,6.69A17.34,17.34,0,0,1,735.29,618.28Zm0-6.15a8.76,8.76,0,0,0,5.63-1.77,10.65,10.65,0,0,0,3.31-4.71,18.42,18.42,0,0,0,1.08-6.43,18.92,18.92,0,0,0-1.08-6.51,10.6,10.6,0,0,0-3.31-4.73,8.76,8.76,0,0,0-5.63-1.77,8.6,8.6,0,0,0-5.57,1.77,10.53,10.53,0,0,0-3.29,4.72,18.54,18.54,0,0,0-1.09,6.52,18.19,18.19,0,0,0,1.09,6.43,10.61,10.61,0,0,0,3.29,4.71A8.6,8.6,0,0,0,735.29,612.13Z" transform="translate(-4.07)"/><path class="cls-9" d="M779.71,617.52V568.2h11.22l10.85,28.3q.47,1.26,1.05,3.18c.39,1.28.8,2.67,1.22,4.17s.82,3,1.2,4.44.71,2.77,1,3.94h-1.6l1-3.83c.38-1.44.78-2.92,1.21-4.42s.83-2.91,1.23-4.23.76-2.41,1.07-3.25l10.69-28.3h11.28v49.32h-7.58V591c0-1,0-2.22,0-3.64s.06-2.9.09-4.48.07-3.17.1-4.79.06-3.15.08-4.63h.57q-.67,2.42-1.45,5t-1.54,5c-.5,1.59-1,3-1.43,4.35s-.84,2.4-1.16,3.26l-10.18,26.55h-6.51L791.83,591c-.34-.83-.72-1.9-1.15-3.19s-.91-2.73-1.42-4.3-1-3.23-1.57-4.94-1.07-3.41-1.61-5.11h.67c0,1.35.09,2.81.12,4.39s.07,3.17.1,4.78.07,3.14.1,4.58,0,2.71,0,3.79v26.55Z" transform="translate(-4.07)"/><path class="cls-9" d="M852,618.35a15.33,15.33,0,0,1-6.41-1.31,10.55,10.55,0,0,1-4.54-3.82,10.92,10.92,0,0,1-1.67-6.16,9.85,9.85,0,0,1,1.22-5.16,8.87,8.87,0,0,1,3.31-3.21,17,17,0,0,1,4.64-1.79,42.61,42.61,0,0,1,5.19-.89l5.38-.65a8.13,8.13,0,0,0,3-.83,2,2,0,0,0,1-1.87v-.2a7,7,0,0,0-.8-3.5,5.4,5.4,0,0,0-2.39-2.21,9.1,9.1,0,0,0-4-.77,10.64,10.64,0,0,0-4.19.74,8.37,8.37,0,0,0-2.84,1.9,8.55,8.55,0,0,0-1.62,2.42l-6.91-1.79a13,13,0,0,1,3.64-5.33,15,15,0,0,1,5.44-2.94,21.83,21.83,0,0,1,6.35-.93,23.9,23.9,0,0,1,4.81.53,14.5,14.5,0,0,1,4.77,1.92,10.5,10.5,0,0,1,3.64,3.91,13.31,13.31,0,0,1,1.4,6.55v24.56h-7.11v-5.06H863a10.54,10.54,0,0,1-2.17,2.78,11.24,11.24,0,0,1-3.62,2.23A13.93,13.93,0,0,1,852,618.35Zm1.64-5.86a10.66,10.66,0,0,0,5.14-1.16,8.28,8.28,0,0,0,3.28-3.08,7.91,7.91,0,0,0,1.13-4.07v-4.73a3.7,3.7,0,0,1-1.52.71,24.71,24.71,0,0,1-2.55.56c-1,.17-1.88.31-2.78.42l-2.2.26a18.3,18.3,0,0,0-3.79.89,6.58,6.58,0,0,0-2.74,1.79,4.49,4.49,0,0,0-1,3.08,4.72,4.72,0,0,0,.92,3,5.48,5.48,0,0,0,2.49,1.78A10.17,10.17,0,0,0,853.64,612.49Z" transform="translate(-4.07)"/><path class="cls-9" d="M880.39,617.52V568.2h7.34v49.32ZM887.17,605v-8.9h1.23l14.73-15.63h8.81l-16.86,17.91h-1.24Zm16.73,12.48L890.64,600l5.07-5.16L913,617.52Z" transform="translate(-4.07)"/><path class="cls-9" d="M922.33,574.85a4.59,4.59,0,0,1-3.26-1.27,4.13,4.13,0,0,1,0-6.11,4.86,4.86,0,0,1,6.53,0,4.11,4.11,0,0,1,0,6.13A4.69,4.69,0,0,1,922.33,574.85Zm-3.71,42.67v-37H926v37Z" transform="translate(-4.07)"/><path class="cls-9" d="M943.2,595.61v21.91h-7.35v-37h7l.06,9.07h-.76a14.18,14.18,0,0,1,4.74-7.25,12.33,12.33,0,0,1,7.51-2.28,13.41,13.41,0,0,1,6.65,1.59,11,11,0,0,1,4.44,4.68,16.63,16.63,0,0,1,1.6,7.7v23.5h-7.35V594.91a8.8,8.8,0,0,0-2.1-6.25,7.52,7.52,0,0,0-5.78-2.25,9.09,9.09,0,0,0-4.44,1.07,7.72,7.72,0,0,0-3.1,3.13A10.15,10.15,0,0,0,943.2,595.61Z" transform="translate(-4.07)"/><path class="cls-9" d="M992.59,632.15a23,23,0,0,1-7.48-1.09,15.43,15.43,0,0,1-5.23-2.91,13,13,0,0,1-3.12-4l6.15-2.88a14.68,14.68,0,0,0,1.78,2.23,9.31,9.31,0,0,0,3,2,12.39,12.39,0,0,0,4.88.82,11.18,11.18,0,0,0,6.93-2q2.65-2,2.65-6.27V610.8h-.63a17,17,0,0,1-1.85,2.65,10,10,0,0,1-3.31,2.47,12.65,12.65,0,0,1-5.53,1,15.47,15.47,0,0,1-7.93-2.05,14.46,14.46,0,0,1-5.59-6.09,21.64,21.64,0,0,1-2.07-9.93,23,23,0,0,1,2-10.12,15.44,15.44,0,0,1,5.61-6.47,14.71,14.71,0,0,1,8-2.25,12.09,12.09,0,0,1,5.6,1.13,10.26,10.26,0,0,1,3.37,2.66,20.26,20.26,0,0,1,1.85,2.7h.54v-6h7.18v37.54a13.47,13.47,0,0,1-2.22,8,13,13,0,0,1-6,4.62A23.46,23.46,0,0,1,992.59,632.15Zm0-21.25a9.32,9.32,0,0,0,5.29-1.44,8.83,8.83,0,0,0,3.26-4.17,17.44,17.44,0,0,0,1.1-6.5,18,18,0,0,0-1.1-6.56,9.76,9.76,0,0,0-3.26-4.4,9.6,9.6,0,0,0-10.7.08,10.21,10.21,0,0,0-3.27,4.5,17.35,17.35,0,0,0-1.11,6.38,16.81,16.81,0,0,0,1.11,6.34,8.74,8.74,0,0,0,8.68,5.77Z" transform="translate(-4.07)"/><path class="cls-9" d="M1035.67,574.69V568.2h38.63v6.49h-15.46v42.83h-7.64V574.69Z" transform="translate(-4.07)"/><path class="cls-9" d="M1089.6,595.61v21.91h-7.35V568.2h7.28v21.38h-1a14.18,14.18,0,0,1,4.74-7.25,12.38,12.38,0,0,1,7.52-2.28,13.45,13.45,0,0,1,6.66,1.59,10.93,10.93,0,0,1,4.44,4.68,16.76,16.76,0,0,1,1.59,7.7v23.5h-7.35V594.91a8.8,8.8,0,0,0-2.1-6.25,7.52,7.52,0,0,0-5.78-2.25,9.06,9.06,0,0,0-4.44,1.07,7.81,7.81,0,0,0-3.11,3.13A10.26,10.26,0,0,0,1089.6,595.61Z" transform="translate(-4.07)"/><path class="cls-9" d="M1139.49,618.28a18.46,18.46,0,0,1-9.52-2.35,15.65,15.65,0,0,1-6.16-6.62,22.06,22.06,0,0,1-2.15-10,22.49,22.49,0,0,1,2.12-10,16.24,16.24,0,0,1,6-6.77,16.72,16.72,0,0,1,9.08-2.43,18.65,18.65,0,0,1,6.18,1,14.86,14.86,0,0,1,9.1,9,23.28,23.28,0,0,1,1.39,8.55v2.59h-29.76v-5.43h26l-3.44,1.78a15.71,15.71,0,0,0-1.06-6,8.42,8.42,0,0,0-8.39-5.51,9.28,9.28,0,0,0-5.31,1.48,9.76,9.76,0,0,0-3.35,3.93,12.21,12.21,0,0,0-1.15,5.31v3.71a14.3,14.3,0,0,0,1.32,6.44,9.12,9.12,0,0,0,3.69,4,11,11,0,0,0,5.51,1.34,11.29,11.29,0,0,0,3.74-.58,7.72,7.72,0,0,0,2.88-1.76A7.55,7.55,0,0,0,1148,607l6.91,1.62a12.56,12.56,0,0,1-3,5,14.3,14.3,0,0,1-5.28,3.39A19.8,19.8,0,0,1,1139.49,618.28Z" transform="translate(-4.07)"/><path class="cls-9" d="M1163.57,617.52v-37h7l.21,8.58h-.57a13,13,0,0,1,2.47-5.17,10.86,10.86,0,0,1,3.91-3,11.28,11.28,0,0,1,4.67-1,8.93,8.93,0,0,1,6.58,2.5,13.11,13.11,0,0,1,3.37,7h-.93a12.25,12.25,0,0,1,2.53-5.16,11.82,11.82,0,0,1,4.36-3.21,13.76,13.76,0,0,1,5.46-1.1,12.63,12.63,0,0,1,6,1.43,10.37,10.37,0,0,1,4.25,4.23,14.24,14.24,0,0,1,1.57,7v25h-7.34V593.29q0-3.7-2.09-5.36a7.71,7.71,0,0,0-4.93-1.66,7.83,7.83,0,0,0-4,1,6.54,6.54,0,0,0-2.57,2.67,8.27,8.27,0,0,0-.9,3.92v23.7h-7.25V592.83a6.2,6.2,0,0,0-1.92-4.77,6.9,6.9,0,0,0-4.89-1.79,7.87,7.87,0,0,0-3.79,1A7.08,7.08,0,0,0,1172,590a9,9,0,0,0-1,4.52v23Z" transform="translate(-4.07)"/><path class="cls-9" d="M1257.64,617.52V597.89L1239.3,568.2h8.89l9.35,15.72q1.56,2.58,2.75,5a57.75,57.75,0,0,1,2.46,5.89h-2.44a55.19,55.19,0,0,1,2.45-6q1.18-2.4,2.66-4.89l9.25-15.72h8.85l-18.27,29.69v19.63Z" transform="translate(-4.07)"/><path class="cls-9" d="M1300.61,618.28a17.27,17.27,0,0,1-9.16-2.38,16.14,16.14,0,0,1-6.1-6.69,21.87,21.87,0,0,1-2.17-10,22.14,22.14,0,0,1,2.17-10.08,16.14,16.14,0,0,1,6.1-6.71,18.89,18.89,0,0,1,18.36,0,16.14,16.14,0,0,1,6.1,6.71,22.27,22.27,0,0,1,2.17,10.08,22,22,0,0,1-2.17,10,16.14,16.14,0,0,1-6.1,6.69A17.34,17.34,0,0,1,1300.61,618.28Zm0-6.15a8.76,8.76,0,0,0,5.63-1.77,10.65,10.65,0,0,0,3.31-4.71,18.42,18.42,0,0,0,1.08-6.43,18.92,18.92,0,0,0-1.08-6.51,10.6,10.6,0,0,0-3.31-4.73,8.76,8.76,0,0,0-5.63-1.77A8.6,8.6,0,0,0,1295,588a10.53,10.53,0,0,0-3.29,4.72,18.54,18.54,0,0,0-1.09,6.52,18.19,18.19,0,0,0,1.09,6.43,10.61,10.61,0,0,0,3.29,4.71A8.6,8.6,0,0,0,1300.61,612.13Z" transform="translate(-4.07)"/><path class="cls-9" d="M1339,618a13.55,13.55,0,0,1-6.68-1.59,10.85,10.85,0,0,1-4.46-4.7,16.79,16.79,0,0,1-1.58-7.68V580.51h7.34v22.61a8.79,8.79,0,0,0,2.12,6.26,7.55,7.55,0,0,0,5.76,2.25,9.06,9.06,0,0,0,4.46-1.08,7.73,7.73,0,0,0,3.09-3.14,10.18,10.18,0,0,0,1.13-5V580.51h7.35v37h-7l0-9.07h.7a13.87,13.87,0,0,1-4.78,7.28A12.31,12.31,0,0,1,1339,618Z" transform="translate(-4.07)"/><path class="cls-9" d="M1367.37,617.52v-37h7.11v6h.4a9,9,0,0,1,3.61-4.76,10.23,10.23,0,0,1,5.84-1.73c.47,0,1,0,1.6,0s1.11.09,1.51.15v7a10.74,10.74,0,0,0-1.54-.26,19.58,19.58,0,0,0-2.3-.13,9.72,9.72,0,0,0-4.58,1.06,7.75,7.75,0,0,0-3.17,2.93,8.1,8.1,0,0,0-1.14,4.32v22.47Z" transform="translate(-4.07)"/><path class="cls-9" d="M1407.21,618.28a20.6,20.6,0,0,1-7.2-1.16,12.64,12.64,0,0,1-5.18-3.42,11.75,11.75,0,0,1-2.69-5.55l6.92-1.42a7.06,7.06,0,0,0,2.87,4.27,9.46,9.46,0,0,0,5.34,1.39,9.72,9.72,0,0,0,5.65-1.47,4.26,4.26,0,0,0,2.1-3.53,3.77,3.77,0,0,0-1.29-2.94,8.4,8.4,0,0,0-4-1.73l-6.28-1.42c-3.47-.77-6.06-2-7.75-3.71a8.84,8.84,0,0,1-2.54-6.52,9.42,9.42,0,0,1,1.87-5.79,12.29,12.29,0,0,1,5.11-3.86,19.12,19.12,0,0,1,7.48-1.37,18.46,18.46,0,0,1,6.91,1.16,11.76,11.76,0,0,1,4.66,3.24,12.47,12.47,0,0,1,2.56,4.84l-6.58,1.42a8.09,8.09,0,0,0-2.44-3.43,7.61,7.61,0,0,0-5-1.47,8.93,8.93,0,0,0-5.08,1.36,4,4,0,0,0-2,3.44,3.75,3.75,0,0,0,1.35,3,10.6,10.6,0,0,0,4.42,1.83l6,1.33q5.19,1.15,7.68,3.64a8.55,8.55,0,0,1,2.51,6.35,9.7,9.7,0,0,1-1.95,6,13,13,0,0,1-5.41,4.07A20.43,20.43,0,0,1,1407.21,618.28Z" transform="translate(-4.07)"/><rect class="cls-10" x="471.86" y="480.73" width="949.16" height="30" rx="12.99"/></g></g></svg>